<?xml version="1.0" encoding="UTF-8" standalone="no"?>
<svg
   id="Слой_2"
   data-name="Слой 2"
   viewBox="0 0 101 101"
   version="1.1"
   sodipodi:docname="Blck_Tilda_Icons_46_ny_santa_blue.svg"
   inkscape:version="1.3 (0e150ed6c4, 2023-07-21)"
   xmlns:inkscape="http://www.inkscape.org/namespaces/inkscape"
   xmlns:sodipodi="http://sodipodi.sourceforge.net/DTD/sodipodi-0.dtd"
   xmlns="http://www.w3.org/2000/svg"
   xmlns:svg="http://www.w3.org/2000/svg"
   xmlns:rdf="http://www.w3.org/1999/02/22-rdf-syntax-ns#"
   xmlns:cc="http://creativecommons.org/ns#"
   xmlns:dc="http://purl.org/dc/elements/1.1/">
  <defs
     id="defs2" />
  <sodipodi:namedview
     id="namedview2"
     pagecolor="#ffffff"
     bordercolor="#666666"
     borderopacity="1.0"
     inkscape:showpageshadow="2"
     inkscape:pageopacity="0.0"
     inkscape:pagecheckerboard="0"
     inkscape:deskcolor="#d1d1d1"
     inkscape:zoom="8.3069307"
     inkscape:cx="50.439809"
     inkscape:cy="50.5"
     inkscape:window-width="1920"
     inkscape:window-height="1017"
     inkscape:window-x="-8"
     inkscape:window-y="-8"
     inkscape:window-maximized="1"
     inkscape:current-layer="Слой_2" />
  <title
     id="title1">hhhArtboard 2 copy 14</title>
  <path
     d="M68.5,53A1.5,1.5,0,0,0,67,54.5v6.73A3.78,3.78,0,0,1,63.23,65h-8a1.5,1.5,0,0,0-1.5,1.5,3.25,3.25,0,1,1-6.49,0,1.5,1.5,0,0,0-1.5-1.5h-8A3.78,3.78,0,0,1,34,61.23V54.5a1.5,1.5,0,0,0-3,0v6.73A6.78,6.78,0,0,0,37.77,68h6.66a6.24,6.24,0,0,0,12.14,0h6.66A6.78,6.78,0,0,0,70,61.23V54.5A1.5,1.5,0,0,0,68.5,53Z"
     id="path1"
     style="fill:#0065f2;fill-opacity:1" />
  <circle
     cx="41.5"
     cy="56.5"
     r="2.5"
     id="circle1"
     style="fill:#0065f2;fill-opacity:1" />
  <circle
     cx="59.5"
     cy="56.5"
     r="2.5"
     id="circle2"
     style="fill:#0065f2;fill-opacity:1" />
  <path
     d="M76.52,32a27.27,27.27,0,0,0-18.87-18.6,8,8,0,1,0-13.45-.22A27.23,27.23,0,0,0,24.48,32,4.77,4.77,0,0,0,20,36.78v6.44a4.78,4.78,0,0,0,3,4.43v24a28.12,28.12,0,0,0,8.88,20.56A26.39,26.39,0,0,0,50,99.4q1,0,2-.07A27.09,27.09,0,0,0,77,72.4V47.92a4.78,4.78,0,0,0,4-4.7V36.78A4.77,4.77,0,0,0,76.52,32ZM51,4a5,5,0,1,1-5,5A5,5,0,0,1,51,4ZM46.29,15.83a1.49,1.49,0,0,0,.37-.12,7.94,7.94,0,0,0,8.38.19A24.22,24.22,0,0,1,73.36,32H27.64A24.19,24.19,0,0,1,46.29,15.83Zm5.5,80.51a23.46,23.46,0,0,1-17.86-6.28A25.11,25.11,0,0,1,26,71.69V48H74V72.4A24.08,24.08,0,0,1,51.78,96.33ZM78,43.22A1.78,1.78,0,0,1,76.22,45H24.78A1.78,1.78,0,0,1,23,43.22V36.78A1.78,1.78,0,0,1,24.78,35H76.22A1.78,1.78,0,0,1,78,36.78Z"
     id="path2"
     style="fill:#0065f2;fill-opacity:1" />
  <metadata
     id="metadata2">
    <rdf:RDF>
      <cc:Work
         rdf:about="">
        <dc:title>hhhArtboard 2 copy 14</dc:title>
      </cc:Work>
    </rdf:RDF>
  </metadata>
</svg>
