<?xml version="1.0" encoding="UTF-8" standalone="no"?>
<svg
   id="Слой_2"
   data-name="Слой 2"
   viewBox="0 0 101 101"
   version="1.1"
   sodipodi:docname="Blck_Tilda_Icons_46_ny_mail_blue.svg"
   inkscape:version="1.3 (0e150ed6c4, 2023-07-21)"
   xmlns:inkscape="http://www.inkscape.org/namespaces/inkscape"
   xmlns:sodipodi="http://sodipodi.sourceforge.net/DTD/sodipodi-0.dtd"
   xmlns="http://www.w3.org/2000/svg"
   xmlns:svg="http://www.w3.org/2000/svg"
   xmlns:rdf="http://www.w3.org/1999/02/22-rdf-syntax-ns#"
   xmlns:cc="http://creativecommons.org/ns#"
   xmlns:dc="http://purl.org/dc/elements/1.1/">
  <defs
     id="defs5" />
  <sodipodi:namedview
     id="namedview5"
     pagecolor="#ffffff"
     bordercolor="#666666"
     borderopacity="1.0"
     inkscape:showpageshadow="2"
     inkscape:pageopacity="0.0"
     inkscape:pagecheckerboard="0"
     inkscape:deskcolor="#d1d1d1"
     inkscape:zoom="8.3069307"
     inkscape:cx="50.439809"
     inkscape:cy="50.5"
     inkscape:window-width="1920"
     inkscape:window-height="1017"
     inkscape:window-x="-8"
     inkscape:window-y="-8"
     inkscape:window-maximized="1"
     inkscape:current-layer="Слой_2" />
  <title
     id="title1">hhhArtboard 2 copy</title>
  <path
     d="M85.5,39h-70A1.5,1.5,0,0,0,14,40.5v44A1.5,1.5,0,0,0,15.5,86h70A1.5,1.5,0,0,0,87,84.5v-44A1.5,1.5,0,0,0,85.5,39ZM84,83H17V42H84Z"
     id="path1"
     style="fill:#0065f2;fill-opacity:1" />
  <path
     d="M23.3,49.75,49.62,68.69a1.5,1.5,0,0,0,1.75,0l26.34-19A1.5,1.5,0,1,0,76,47.29L50.5,65.63,25.05,47.32a1.5,1.5,0,1,0-1.75,2.44Z"
     id="path2"
     style="fill:#0065f2;fill-opacity:1" />
  <path
     d="M38.36,34.4a1.5,1.5,0,0,0,1.4-2c-3.54-9.19-4.54-16.09-3.06-21.09.89-3,3.37-4.71,6-4.2a5.12,5.12,0,0,1,4.06,6,1.5,1.5,0,0,0,2.95.57,8.12,8.12,0,0,0-6.43-9.51c-4.17-.81-8.16,1.84-9.48,6.29-1.68,5.66-.65,13.19,3.14,23A1.5,1.5,0,0,0,38.36,34.4Z"
     id="path3"
     style="fill:#0065f2;fill-opacity:1" />
  <path
     d="M19.12,19.33c2.7.3,5.16,3.1,8.21,9.38A1.5,1.5,0,0,0,30,27.4C27.39,22,24.28,16.88,19.45,16.34a7.91,7.91,0,0,0-8.72,7,1.5,1.5,0,0,0,3,.33A4.91,4.91,0,0,1,19.12,19.33Z"
     id="path4"
     style="fill:#0065f2;fill-opacity:1" />
  <path
     d="M70.34,34.89a1.49,1.49,0,0,0,.61-.13c10.29-4.56,14.78-9.68,13.74-15.67-.81-4.64-4.45-7.82-8.73-7.56a1.5,1.5,0,0,0,.19,3c3.16-.18,5.14,2.49,5.59,5.08.28,1.63,1.14,6.59-12,12.42a1.5,1.5,0,0,0,.61,2.87Z"
     id="path5"
     style="fill:#0065f2;fill-opacity:1" />
  <metadata
     id="metadata5">
    <rdf:RDF>
      <cc:Work
         rdf:about="">
        <dc:title>hhhArtboard 2 copy</dc:title>
      </cc:Work>
    </rdf:RDF>
  </metadata>
</svg>
