<?xml version="1.0" encoding="UTF-8" standalone="no"?>
<svg
   id="Слой_2"
   data-name="Слой 2"
   viewBox="0 0 101 101"
   version="1.1"
   sodipodi:docname="Blck_Tilda_Icons_46_ny_champagne_blue.svg"
   inkscape:version="1.3 (0e150ed6c4, 2023-07-21)"
   xmlns:inkscape="http://www.inkscape.org/namespaces/inkscape"
   xmlns:sodipodi="http://sodipodi.sourceforge.net/DTD/sodipodi-0.dtd"
   xmlns="http://www.w3.org/2000/svg"
   xmlns:svg="http://www.w3.org/2000/svg"
   xmlns:rdf="http://www.w3.org/1999/02/22-rdf-syntax-ns#"
   xmlns:cc="http://creativecommons.org/ns#"
   xmlns:dc="http://purl.org/dc/elements/1.1/">
  <defs
     id="defs4" />
  <sodipodi:namedview
     id="namedview4"
     pagecolor="#ffffff"
     bordercolor="#666666"
     borderopacity="1.0"
     inkscape:showpageshadow="2"
     inkscape:pageopacity="0.0"
     inkscape:pagecheckerboard="0"
     inkscape:deskcolor="#d1d1d1"
     inkscape:zoom="8.3069307"
     inkscape:cx="50.439809"
     inkscape:cy="50.5"
     inkscape:window-width="1920"
     inkscape:window-height="1017"
     inkscape:window-x="-8"
     inkscape:window-y="-8"
     inkscape:window-maximized="1"
     inkscape:current-layer="Слой_2" />
  <title
     id="title1">hhhArtboard 2 copy 10 копия 5</title>
  <path
     d="M69.41,26.18a1.5,1.5,0,0,0-2.12,0L59.87,33.6a18.11,18.11,0,0,1-5.7,3.86L38.08,44.35A13.14,13.14,0,0,0,34,47.15L9.53,71.57a1.47,1.47,0,0,0-.35.6c-.63,1-.82,2.83.78,5.92a33.07,33.07,0,0,0,5.87,7.65c3.81,3.81,8.59,7.1,11.8,7.1a3.12,3.12,0,0,0,2.3-.87l0-.05L54.4,67.5a13.12,13.12,0,0,0,2.74-4l7.11-16.07A18.14,18.14,0,0,1,68,41.92l7.5-7.5a1.5,1.5,0,0,0,0-2.12ZM11.72,73.76a1.47,1.47,0,0,0,.26-.4L33.61,51.73a13.91,13.91,0,0,0,.79,1.8,33.06,33.06,0,0,0,5.87,7.65c3,3,6.58,5.65,9.53,6.67l-22,22c-.78.3-4.72-1.08-9.86-6.22S11.41,74.43,11.72,73.76Zm54.18-34a21.14,21.14,0,0,0-4.4,6.42L54.39,62.29a10.14,10.14,0,0,1-1.88,2.83,1.41,1.41,0,0,0-.22.14c-.71.34-4.69-1-9.9-6.21s-6.55-9.19-6.24-9.86h0a10.15,10.15,0,0,1,3.1-2.08l16.08-6.89A21.1,21.1,0,0,0,62,35.72l6.36-6.36,4,4Z"
     id="path1"
     style="fill:#0065f2;fill-opacity:1" />
  <path
     d="M86.55,15a1.5,1.5,0,0,0-2.12,0L77,22.47a1.5,1.5,0,1,0,2.12,2.12l7.42-7.42A1.5,1.5,0,0,0,86.55,15Z"
     id="path2"
     style="fill:#0065f2;fill-opacity:1" />
  <path
     d="M71.5,21A1.5,1.5,0,0,0,73,19.5V9.5a1.5,1.5,0,0,0-3,0v10A1.5,1.5,0,0,0,71.5,21Z"
     id="path3"
     style="fill:#0065f2;fill-opacity:1" />
  <path
     d="M92.5,28h-10a1.5,1.5,0,0,0,0,3h10a1.5,1.5,0,0,0,0-3Z"
     id="path4"
     style="fill:#0065f2;fill-opacity:1" />
  <metadata
     id="metadata4">
    <rdf:RDF>
      <cc:Work
         rdf:about="">
        <dc:title>hhhArtboard 2 copy 10 копия 5</dc:title>
      </cc:Work>
    </rdf:RDF>
  </metadata>
</svg>
