<?xml version="1.0" encoding="UTF-8" standalone="no"?>
<svg
   id="Слой_2"
   data-name="Слой 2"
   viewBox="0 0 101 101"
   version="1.1"
   sodipodi:docname="Blck_Tilda_Icons_46_ny_moon_blue.svg"
   inkscape:version="1.3 (0e150ed6c4, 2023-07-21)"
   xmlns:inkscape="http://www.inkscape.org/namespaces/inkscape"
   xmlns:sodipodi="http://sodipodi.sourceforge.net/DTD/sodipodi-0.dtd"
   xmlns="http://www.w3.org/2000/svg"
   xmlns:svg="http://www.w3.org/2000/svg"
   xmlns:rdf="http://www.w3.org/1999/02/22-rdf-syntax-ns#"
   xmlns:cc="http://creativecommons.org/ns#"
   xmlns:dc="http://purl.org/dc/elements/1.1/">
  <defs
     id="defs2" />
  <sodipodi:namedview
     id="namedview2"
     pagecolor="#ffffff"
     bordercolor="#666666"
     borderopacity="1.0"
     inkscape:showpageshadow="2"
     inkscape:pageopacity="0.0"
     inkscape:pagecheckerboard="0"
     inkscape:deskcolor="#d1d1d1"
     inkscape:zoom="8.3069307"
     inkscape:cx="50.439809"
     inkscape:cy="50.5"
     inkscape:window-width="1920"
     inkscape:window-height="1017"
     inkscape:window-x="-8"
     inkscape:window-y="-8"
     inkscape:window-maximized="1"
     inkscape:current-layer="Слой_2" />
  <title
     id="title1">hhhArtboard 2 copy 10 копия 13</title>
  <path
     d="M81.69,88.64a2.74,2.74,0,0,0-2.91-1.88A35.85,35.85,0,0,1,40.66,61.16a1.09,1.09,0,0,1,.17-1,1.06,1.06,0,0,1,.86-.43H52.8a3.9,3.9,0,0,0,3.66-2.45A4,4,0,0,0,55.6,53l-8.74-8.74a10.52,10.52,0,0,1-1.31-13.41A35.75,35.75,0,0,1,71.45,15.48a36.47,36.47,0,0,1,7.31,0,2.76,2.76,0,0,0,2.92-1.89,2.69,2.69,0,0,0-1.2-3.22,47.37,47.37,0,1,0,0,81.48A2.73,2.73,0,0,0,81.69,88.64ZM56.32,95.5A44.52,44.52,0,0,1,23.8,81.32,44,44,0,0,1,12.07,47.75a44.5,44.5,0,0,1,41-40.88q1.61-.11,3.21-.11A44.12,44.12,0,0,1,78,12.41a39.77,39.77,0,0,0-6.83.09A38.74,38.74,0,0,0,43.08,29.16a13.52,13.52,0,0,0,1.66,17.23l8.74,8.74a1,1,0,0,1-.68,1.64H41.7A4.09,4.09,0,0,0,37.78,62a38.28,38.28,0,0,0,3.53,8.29,11.11,11.11,0,0,1-13.08-6.84,1.5,1.5,0,0,0-2.81,1.06A14,14,0,0,0,43,72.93a39.05,39.05,0,0,0,32.1,17c1,0,1.94,0,2.91-.11A44.27,44.27,0,0,1,56.32,95.5Z"
     id="path1"
     style="fill:#0065f2;fill-opacity:1" />
  <path
     d="M33.41,43.43a1.5,1.5,0,0,0-2.12-2.12,3.83,3.83,0,0,1-5.27,0,1.5,1.5,0,1,0-2.11,2.13,6.74,6.74,0,0,0,9.5,0Z"
     id="path2"
     style="fill:#0065f2;fill-opacity:1" />
  <metadata
     id="metadata2">
    <rdf:RDF>
      <cc:Work
         rdf:about="">
        <dc:title>hhhArtboard 2 copy 10 копия 13</dc:title>
      </cc:Work>
    </rdf:RDF>
  </metadata>
</svg>
