<?xml version="1.0" encoding="UTF-8" standalone="no"?>
<svg
   id="Слой_2"
   data-name="Слой 2"
   viewBox="0 0 101 101"
   version="1.1"
   sodipodi:docname="Blck_Tilda_Icons_46_ny_invite_blue.svg"
   inkscape:version="1.3 (0e150ed6c4, 2023-07-21)"
   xmlns:inkscape="http://www.inkscape.org/namespaces/inkscape"
   xmlns:sodipodi="http://sodipodi.sourceforge.net/DTD/sodipodi-0.dtd"
   xmlns="http://www.w3.org/2000/svg"
   xmlns:svg="http://www.w3.org/2000/svg"
   xmlns:rdf="http://www.w3.org/1999/02/22-rdf-syntax-ns#"
   xmlns:cc="http://creativecommons.org/ns#"
   xmlns:dc="http://purl.org/dc/elements/1.1/">
  <defs
     id="defs3" />
  <sodipodi:namedview
     id="namedview3"
     pagecolor="#ffffff"
     bordercolor="#666666"
     borderopacity="1.0"
     inkscape:showpageshadow="2"
     inkscape:pageopacity="0.0"
     inkscape:pagecheckerboard="0"
     inkscape:deskcolor="#d1d1d1"
     inkscape:zoom="8.3069307"
     inkscape:cx="50.439809"
     inkscape:cy="50.5"
     inkscape:window-width="1920"
     inkscape:window-height="1017"
     inkscape:window-x="-8"
     inkscape:window-y="-8"
     inkscape:window-maximized="1"
     inkscape:current-layer="Слой_2" />
  <title
     id="title1">hhhArtboard 2 copy 10 копия 12</title>
  <path
     d="M89.5,28h-12a1.5,1.5,0,0,0,0,3H88V78H13V31H49.5a1.5,1.5,0,0,0,0-3h-38A1.5,1.5,0,0,0,10,29.5v50A1.5,1.5,0,0,0,11.5,81h78A1.5,1.5,0,0,0,91,79.5v-50A1.5,1.5,0,0,0,89.5,28Z"
     id="path1"
     style="fill:#0065f2;fill-opacity:1" />
  <path
     d="M60.66,28.34,49.38,39.61a1.5,1.5,0,0,0,2.12,2.12L63.88,29.35,76.26,41.74a1.5,1.5,0,0,0,2.12-2.12L67.06,28.29c3.76-.92,11.68-3.07,14-5.39A8.38,8.38,0,0,0,69.21,11.05c-2.37,2.37-4.56,10.59-5.45,14.24-.88-3.65-3.08-11.87-5.45-14.24A8.38,8.38,0,0,0,46.47,22.9C48.83,25.26,57,27.45,60.66,28.34ZM71.33,13.18a5.32,5.32,0,0,1,3.77-1.56,5.38,5.38,0,0,1,3.83,9.16c-1.46,1.46-7.45,3.31-12.08,4.47C68,20.62,69.88,14.63,71.33,13.18Zm-22.72,0a5.37,5.37,0,0,1,7.58,0c1.46,1.46,3.31,7.45,4.47,12.08-4.63-1.16-10.62-3-12.08-4.47A5.37,5.37,0,0,1,48.62,13.2Z"
     id="path2"
     style="fill:#0065f2;fill-opacity:1" />
  <path
     d="M70.67,63.75a1.5,1.5,0,0,0,2.08-.42c.28-.42,2.68-4.15,1.86-7.26a4.5,4.5,0,0,0-2.43-2.92c-4.15-2.07-8,1.84-11.17,5-1.42,1.43-3.37,3.4-4.24,3.4h0s-.09,0-.2-.12a3.07,3.07,0,0,1-.65-2.06c-.13-1.37-.33-3.44-2.93-4.31-3-1-5.56,1.31-7.6,3.17-1,.93-2.56,2.33-3,2s-.46-.73-.2-2.4c.31-1.94.83-5.18-3.08-6.74-1-.41-6.5-1.86-14.77,9.51a1.5,1.5,0,0,0,2.43,1.76c3-4.17,8.53-9.57,11.23-8.49,1.6.64,1.56,1.4,1.23,3.49-.27,1.67-.63,4,1.49,5.37,2.43,1.62,4.81-.54,6.73-2.28C49,59,50.68,57.47,52,57.92c.68.23.77.39.9,1.75a5.83,5.83,0,0,0,1.52,3.89,3.24,3.24,0,0,0,2.33,1h0c2.11,0,4.08-2,6.36-4.29,2.57-2.59,5.49-5.53,7.7-4.43a1.51,1.51,0,0,1,.88,1c.41,1.53-.95,4.06-1.45,4.83A1.5,1.5,0,0,0,70.67,63.75Z"
     id="path3"
     style="fill:#0065f2;fill-opacity:1" />
  <metadata
     id="metadata3">
    <rdf:RDF>
      <cc:Work
         rdf:about="">
        <dc:title>hhhArtboard 2 copy 10 копия 12</dc:title>
      </cc:Work>
    </rdf:RDF>
  </metadata>
</svg>
