<?xml version="1.0" encoding="UTF-8" standalone="no"?>
<svg
   id="Слой_2"
   data-name="Слой 2"
   viewBox="0 0 101 101"
   version="1.1"
   sodipodi:docname="Blck_Tilda_Icons_46_ny_snow_blue.svg"
   inkscape:version="1.3 (0e150ed6c4, 2023-07-21)"
   xmlns:inkscape="http://www.inkscape.org/namespaces/inkscape"
   xmlns:sodipodi="http://sodipodi.sourceforge.net/DTD/sodipodi-0.dtd"
   xmlns="http://www.w3.org/2000/svg"
   xmlns:svg="http://www.w3.org/2000/svg"
   xmlns:rdf="http://www.w3.org/1999/02/22-rdf-syntax-ns#"
   xmlns:cc="http://creativecommons.org/ns#"
   xmlns:dc="http://purl.org/dc/elements/1.1/">
  <defs
     id="defs4" />
  <sodipodi:namedview
     id="namedview4"
     pagecolor="#ffffff"
     bordercolor="#666666"
     borderopacity="1.0"
     inkscape:showpageshadow="2"
     inkscape:pageopacity="0.0"
     inkscape:pagecheckerboard="0"
     inkscape:deskcolor="#d1d1d1"
     inkscape:zoom="8.3069307"
     inkscape:cx="50.439809"
     inkscape:cy="50.5"
     inkscape:window-width="1920"
     inkscape:window-height="1017"
     inkscape:window-x="-8"
     inkscape:window-y="-8"
     inkscape:window-maximized="1"
     inkscape:current-layer="Слой_2" />
  <title
     id="title1">hhhArtboard 2 copy 10 копия 9</title>
  <path
     d="M93.5,47a43,43,0,1,0-70,33.46v11A1.5,1.5,0,0,0,25,93H76a1.5,1.5,0,0,0,1.5-1.5v-11A42.8,42.8,0,0,0,93.5,47Zm-19,43h-48V81h48Zm1.26-12H25.24a40,40,0,1,1,50.53,0Z"
     id="path1"
     style="fill:#0065f2;fill-opacity:1" />
  <path
     d="M85,53.22A39.87,39.87,0,0,0,69,50c-8.5,0-14.53,3.21-20.35,6.32-3.8,2-7.47,4-11.7,5V50H47.44a1.5,1.5,0,0,0,1.36-2.14L36.86,22.61a1.5,1.5,0,0,0-2.71,0L22.2,47.86A1.5,1.5,0,0,0,23.56,50H34V61.83A26.45,26.45,0,0,1,18.71,59a1.5,1.5,0,0,0-1.41,2.65A28.94,28.94,0,0,0,31,65c7.75,0,13.5-3.07,19.06-6C55.86,55.9,61.29,53,69,53a36.92,36.92,0,0,1,14.76,3A1.5,1.5,0,0,0,85,53.22ZM35.5,26.76,45.08,47H25.92Z"
     id="path2"
     style="fill:#0065f2;fill-opacity:1" />
  <circle
     cx="67.58"
     cy="37.98"
     r="2.5"
     transform="translate(-0.37 0.67) rotate(-0.57)"
     id="circle2"
     style="fill:#0065f2;fill-opacity:1" />
  <circle
     cx="76.54"
     cy="33.89"
     r="2.5"
     transform="translate(-0.33 0.76) rotate(-0.57)"
     id="circle3"
     style="fill:#0065f2;fill-opacity:1" />
  <circle
     cx="54.42"
     cy="21.11"
     r="2.5"
     transform="translate(-0.21 0.54) rotate(-0.57)"
     id="circle4"
     style="fill:#0065f2;fill-opacity:1" />
  <metadata
     id="metadata4">
    <rdf:RDF>
      <cc:Work
         rdf:about="">
        <dc:title>hhhArtboard 2 copy 10 копия 9</dc:title>
      </cc:Work>
    </rdf:RDF>
  </metadata>
</svg>
