<?xml version="1.0" encoding="UTF-8" standalone="no"?>
<svg id="Слой_1" data-name="Слой 1" viewBox="0 0 101 101" version="1.1" sodipodi:docname="Tilda_Icons_44_travel_car-blue.svg" inkscape:version="1.3 (0e150ed6c4, 2023-07-21)" xmlns:inkscape="http://www.inkscape.org/namespaces/inkscape" xmlns:sodipodi="http://sodipodi.sourceforge.net/DTD/sodipodi-0.dtd" xmlns="http://www.w3.org/2000/svg" xmlns:svg="http://www.w3.org/2000/svg" xmlns:rdf="http://www.w3.org/1999/02/22-rdf-syntax-ns#" xmlns:cc="http://creativecommons.org/ns#" xmlns:dc="http://purl.org/dc/elements/1.1/">
  <defs id="defs1"/>
  <sodipodi:namedview id="namedview1" pagecolor="#ffffff" bordercolor="#666666" borderopacity="1.0" inkscape:showpageshadow="2" inkscape:pageopacity="0.0" inkscape:pagecheckerboard="0" inkscape:deskcolor="#d1d1d1" inkscape:zoom="8.3069307" inkscape:cx="50.5" inkscape:cy="60.130513" inkscape:window-width="1920" inkscape:window-height="1017" inkscape:window-x="-8" inkscape:window-y="-8" inkscape:window-maximized="1" inkscape:current-layer="Слой_1"/>
  <title id="title1">log_Монтажная область 6</title>
  <path d="M97.8,57.62c-2.64-10.44-5.19-11.44-13.64-13.29L82.83,44c-5.51-1.23-15.42-8.66-18.68-11.11A19.88,19.88,0,0,0,52.28,29H35.57c-4.27,0-5.25.55-6.6,1.91l-.16.18L23.68,38.2c-.68.69-1.25,1.38-1.76,2-1.25,1.52-2.08,2.53-3.61,2.82l-8.09,1C6.38,44.75,4,47,4,50V64.5A1.5,1.5,0,0,0,5.5,66h7.59a9,9,0,0,0,17.54,0H65.09a9,9,0,0,0,17.54,0h8.66a6.73,6.73,0,0,0,6.51-8.38ZM24.24,42.1c.51-.62,1-1.26,1.65-1.87L26,40l5.13-7.11c.65-.65,1.08-.94,4.39-.94h16.7a16.86,16.86,0,0,1,10.07,3.33c4.34,3.26,8,5.79,11.14,7.67h-50ZM21.87,70a6,6,0,1,1,6-6A6,6,0,0,1,21.87,70Zm52,0a6,6,0,1,1,6-6A6,6,0,0,1,73.87,70Zm20.35-8.43A3.69,3.69,0,0,1,91.29,63H82.8a9,9,0,0,0-17.88,0H30.8a9,9,0,0,0-17.88,0H7V50c0-2.11,2.89-2.82,3.69-3l7.88-1H79.24a18.06,18.06,0,0,0,2.93,1l1.35.3c7.68,1.68,9.07,2,11.37,11.09A3.72,3.72,0,0,1,94.22,61.57Z" id="path1" style="fill:#0065f2;fill-opacity:1"/>
  <metadata id="metadata1">
    <rdf:RDF>
      <cc:Work rdf:about="">
        <dc:title>log_Монтажная область 6</dc:title>
      </cc:Work>
    </rdf:RDF>
  </metadata>
</svg>