<?xml version="1.0" encoding="UTF-8" standalone="no"?>
<!-- Generator: Adobe Illustrator 21.0.0, SVG Export Plug-In . SVG Version: 6.00 Build 0)  -->

<svg
   version="1.1"
   id="Layer_1"
   x="0px"
   y="0px"
   viewBox="0 0 100.353 100.353"
   style="enable-background:new 0 0 100.353 100.353;"
   xml:space="preserve"
   sodipodi:docname="Tilda_Icons_10cw_safe_blue.svg"
   inkscape:version="1.3 (0e150ed6c4, 2023-07-21)"
   xmlns:inkscape="http://www.inkscape.org/namespaces/inkscape"
   xmlns:sodipodi="http://sodipodi.sourceforge.net/DTD/sodipodi-0.dtd"
   xmlns="http://www.w3.org/2000/svg"
   xmlns:svg="http://www.w3.org/2000/svg"><defs
   id="defs4" /><sodipodi:namedview
   id="namedview4"
   pagecolor="#ffffff"
   bordercolor="#666666"
   borderopacity="1.0"
   inkscape:showpageshadow="2"
   inkscape:pageopacity="0.0"
   inkscape:pagecheckerboard="0"
   inkscape:deskcolor="#d1d1d1"
   inkscape:zoom="8.3604877"
   inkscape:cx="50.116693"
   inkscape:cy="50.176498"
   inkscape:window-width="1920"
   inkscape:window-height="1017"
   inkscape:window-x="-8"
   inkscape:window-y="-8"
   inkscape:window-maximized="1"
   inkscape:current-layer="Layer_1" />&#10;<g
   id="g4"
   style="fill:#0065f2;fill-opacity:1">&#10;	<path
   style="fill:#0065f2;fill-opacity:1"
   d="M83.526,7.519H16.475c-0.829,0-1.5,0.671-1.5,1.5V90.98c0,0.829,0.671,1.5,1.5,1.5h67.051   c0.829,0,1.5-0.671,1.5-1.5V9.019C85.026,8.19,84.354,7.519,83.526,7.519z M82.026,89.48H17.975V10.519h64.051V89.48z"
   id="path1" />&#10;	<path
   style="fill:#0065f2;fill-opacity:1"
   d="M23.93,85.027h52.14c0.829,0,1.5-0.671,1.5-1.5V16.472c0-0.829-0.671-1.5-1.5-1.5H23.93   c-0.829,0-1.5,0.671-1.5,1.5v67.055C22.43,84.356,23.102,85.027,23.93,85.027z M25.43,82.027V51.499h49.14v30.528H25.43z    M74.57,17.973V48.5H25.43V17.973H74.57z"
   id="path2" />&#10;	<path
   style="fill:#0065f2;fill-opacity:1"
   d="M38.827,34.715h22.344c0.829,0,1.5-0.671,1.5-1.5v-7.453c0-0.829-0.671-1.5-1.5-1.5H38.827   c-0.829,0-1.5,0.671-1.5,1.5v7.453C37.327,34.044,37.998,34.715,38.827,34.715z M40.327,27.262h19.344v4.453H40.327V27.262z"
   id="path3" />&#10;	<path
   style="fill:#0065f2;fill-opacity:1"
   d="M61.171,57.789H38.827c-0.829,0-1.5,0.671-1.5,1.5v7.453c0,0.829,0.671,1.5,1.5,1.5h22.344   c0.829,0,1.5-0.671,1.5-1.5v-7.453C62.671,58.461,61.999,57.789,61.171,57.789z M59.671,65.243H40.327V60.79h19.344V65.243z"
   id="path4" />&#10;</g>&#10;</svg>
