<?xml version="1.0" encoding="UTF-8" standalone="no"?>
<svg
   id="Layer_1"
   data-name="Layer 1"
   viewBox="0 0 101 101"
   version="1.1"
   sodipodi:docname="Tilda_Icons_47dlvr_where_blue.svg"
   inkscape:version="1.3 (0e150ed6c4, 2023-07-21)"
   xmlns:inkscape="http://www.inkscape.org/namespaces/inkscape"
   xmlns:sodipodi="http://sodipodi.sourceforge.net/DTD/sodipodi-0.dtd"
   xmlns="http://www.w3.org/2000/svg"
   xmlns:svg="http://www.w3.org/2000/svg">
  <defs
     id="defs2" />
  <sodipodi:namedview
     id="namedview2"
     pagecolor="#ffffff"
     bordercolor="#666666"
     borderopacity="1.0"
     inkscape:showpageshadow="2"
     inkscape:pageopacity="0.0"
     inkscape:pagecheckerboard="0"
     inkscape:deskcolor="#d1d1d1"
     inkscape:zoom="4.1534653"
     inkscape:cx="16.371871"
     inkscape:cy="32.141836"
     inkscape:window-width="1920"
     inkscape:window-height="1017"
     inkscape:window-x="-8"
     inkscape:window-y="-8"
     inkscape:window-maximized="1"
     inkscape:current-layer="Layer_1" />
  <path
     d="M90.94,53.35A14.34,14.34,0,0,0,81,49.1l0-20.32a1.47,1.47,0,0,0-.67-1.24L43.73,3.13a1.49,1.49,0,0,0-1.67,0L5.67,27.39A1.49,1.49,0,0,0,5,28.64V62.73A1.48,1.48,0,0,0,5.68,64L43,88.43a1.52,1.52,0,0,0,1.67,0l24-16.68a1.86,1.86,0,0,0,.29-.27L79.1,89.28a1.54,1.54,0,0,0,1.28.77h0a1.49,1.49,0,0,0,1.27-.71L93,71.29a1.08,1.08,0,0,0,.12-.24,14.47,14.47,0,0,0-2.15-17.7Zm-47.1-2.07-16.56-11L60.45,17.89,77.33,29.14Zm-1-45.1,14.87,9.91L24.58,38.46l-15.07-10ZM8,31,42,53.66V84.18L8,61.92ZM45,84.54V54.11L78,32.29l0,17.05A14.52,14.52,0,0,0,66.17,63.57a11.39,11.39,0,0,0,1.26,5.51,1.33,1.33,0,0,0-.4.19ZM92.17,63.6a11.55,11.55,0,0,1-1.78,6.11,1.63,1.63,0,0,0-.11.23L80.47,85.61,71.06,69a1.54,1.54,0,0,0-.44-.63c-.7-.57-1.45-2.31-1.45-4.77A11.51,11.51,0,0,1,80.68,52.09h0A11.47,11.47,0,0,1,92.17,63.6Z"
     id="path1"
     style="fill:#0065f2;fill-opacity:1" />
  <path
     d="M80.68,56.55h0a6.35,6.35,0,0,0-6.35,6.33,6.33,6.33,0,0,0,6.34,6.36h0a6.35,6.35,0,0,0,0-12.69ZM84,62.9a3.35,3.35,0,0,1-3.34,3.34h0a3.32,3.32,0,0,1-2.36-1,3.26,3.26,0,0,1-1-2.37,3.34,3.34,0,0,1,3.34-3.34h0A3.35,3.35,0,0,1,84,62.9Z"
     id="path2"
     style="fill:#0065f2;fill-opacity:1" />
</svg>
