<?xml version="1.0" encoding="UTF-8" standalone="no"?>
<!-- Generator: Adobe Illustrator 21.1.0, SVG Export Plug-In . SVG Version: 6.00 Build 0)  -->

<svg
   version="1.1"
   id="Layer_1"
   x="0px"
   y="0px"
   viewBox="0 0 100.4 100.4"
   style="enable-background:new 0 0 100.4 100.4;"
   xml:space="preserve"
   sodipodi:docname="Tilda_Icons_1ed_list_blue.svg"
   inkscape:version="1.3 (0e150ed6c4, 2023-07-21)"
   xmlns:inkscape="http://www.inkscape.org/namespaces/inkscape"
   xmlns:sodipodi="http://sodipodi.sourceforge.net/DTD/sodipodi-0.dtd"
   xmlns="http://www.w3.org/2000/svg"
   xmlns:svg="http://www.w3.org/2000/svg"><defs
   id="defs4" /><sodipodi:namedview
   id="namedview4"
   pagecolor="#ffffff"
   bordercolor="#666666"
   borderopacity="1.0"
   inkscape:showpageshadow="2"
   inkscape:pageopacity="0.0"
   inkscape:pagecheckerboard="0"
   inkscape:deskcolor="#d1d1d1"
   inkscape:zoom="8.3565736"
   inkscape:cx="50.140168"
   inkscape:cy="50.200001"
   inkscape:window-width="1920"
   inkscape:window-height="1017"
   inkscape:window-x="-8"
   inkscape:window-y="-8"
   inkscape:window-maximized="1"
   inkscape:current-layer="Layer_1" />&#10;<g
   id="g4"
   style="fill:#0065f2;fill-opacity:1">&#10;	<path
   d="M79.1,10.1H63.2V3.3c0-0.8-0.7-1.5-1.5-1.5H38c-0.8,0-1.5,0.7-1.5,1.5v6.8H19.7c-3.5,0-6.3,2.8-6.3,6.3v75.4   c0,3.5,2.8,6.3,6.3,6.3h59.5c3.5,0,6.3-2.8,6.3-6.3V16.4C85.4,12.9,82.6,10.1,79.1,10.1z M38,29.5h23.7c0.8,0,1.5-0.7,1.5-1.5v-6.5   h10.5v64.7H25.1V21.6h11.4V28C36.5,28.9,37.2,29.5,38,29.5z M60.2,4.8V20c0,0,0,0,0,0s0,0,0,0v6.5H39.5v-6.5c0,0,0,0,0,0s0,0,0,0   v-8.5c0,0,0,0,0,0s0,0,0,0V4.8L60.2,4.8L60.2,4.8z M82.4,91.7c0,1.8-1.5,3.3-3.3,3.3H19.7c-1.8,0-3.3-1.5-3.3-3.3V16.4   c0-1.8,1.5-3.3,3.3-3.3h16.8v5.5H23.6c-0.8,0-1.5,0.7-1.5,1.5v67.7c0,0.8,0.7,1.5,1.5,1.5h51.6c0.8,0,1.5-0.7,1.5-1.5V20.1   c0-0.8-0.7-1.5-1.5-1.5h-12v-5.5h15.9c1.8,0,3.3,1.5,3.3,3.3V91.7z"
   id="path1"
   style="fill:#0065f2;fill-opacity:1" />&#10;	<path
   d="M28.8,46.4c0,0.8,0.7,1.5,1.5,1.5h38.5c0.8,0,1.5-0.7,1.5-1.5s-0.7-1.5-1.5-1.5H30.3C29.5,44.9,28.8,45.6,28.8,46.4z"
   id="path2"
   style="fill:#0065f2;fill-opacity:1" />&#10;	<path
   d="M68.8,55.4H30.3c-0.8,0-1.5,0.7-1.5,1.5s0.7,1.5,1.5,1.5h38.5c0.8,0,1.5-0.7,1.5-1.5S69.6,55.4,68.8,55.4z"
   id="path3"
   style="fill:#0065f2;fill-opacity:1" />&#10;	<path
   d="M68.8,66.4H30.3c-0.8,0-1.5,0.7-1.5,1.5c0,0.8,0.7,1.5,1.5,1.5h38.5c0.8,0,1.5-0.7,1.5-1.5C70.3,67.1,69.6,66.4,68.8,66.4z   "
   id="path4"
   style="fill:#0065f2;fill-opacity:1" />&#10;</g>&#10;</svg>
