<?xml version="1.0" encoding="UTF-8" standalone="no"?>
<!-- Generator: Adobe Illustrator 21.1.0, SVG Export Plug-In . SVG Version: 6.00 Build 0)  -->

<svg
   version="1.1"
   id="Layer_1"
   x="0px"
   y="0px"
   viewBox="0 0 100.75 100.749"
   style="enable-background:new 0 0 100.75 100.749;"
   xml:space="preserve"
   sodipodi:docname="Tilda_Icons_25as_electricity_blue.svg"
   inkscape:version="1.3 (0e150ed6c4, 2023-07-21)"
   xmlns:inkscape="http://www.inkscape.org/namespaces/inkscape"
   xmlns:sodipodi="http://sodipodi.sourceforge.net/DTD/sodipodi-0.dtd"
   xmlns="http://www.w3.org/2000/svg"
   xmlns:svg="http://www.w3.org/2000/svg"><defs
   id="defs3" /><sodipodi:namedview
   id="namedview3"
   pagecolor="#ffffff"
   bordercolor="#666666"
   borderopacity="1.0"
   inkscape:showpageshadow="2"
   inkscape:pageopacity="0.0"
   inkscape:pagecheckerboard="0"
   inkscape:deskcolor="#d1d1d1"
   inkscape:zoom="8.327626"
   inkscape:cx="50.434541"
   inkscape:cy="50.3745"
   inkscape:window-width="1920"
   inkscape:window-height="1017"
   inkscape:window-x="-8"
   inkscape:window-y="-8"
   inkscape:window-maximized="1"
   inkscape:current-layer="Layer_1" />&#10;<g
   id="g3"
   style="fill:#0065f2;fill-opacity:1">&#10;	<path
   d="M95.9,27.729H83.547v-5.703c0-0.829-0.672-1.5-1.5-1.5h-17.06c-0.828,0-1.5,0.671-1.5,1.5v5.703H37.26v-5.703   c0-0.829-0.671-1.5-1.5-1.5H18.7c-0.829,0-1.5,0.671-1.5,1.5v5.703H4.1c-0.829,0-1.5,0.671-1.5,1.5v51.975   c0,0.828,0.671,1.5,1.5,1.5h91.8c0.828,0,1.5-0.672,1.5-1.5V29.229C97.4,28.4,96.729,27.729,95.9,27.729z M66.487,23.526h14.06   v4.203h-14.06V23.526z M20.2,23.526h14.06v4.203H20.2V23.526z M94.4,79.704H5.6V30.729h88.8V79.704z"
   id="path1"
   style="fill:#0065f2;fill-opacity:1" />&#10;	<path
   d="M18.7,56.717h17.06c0.829,0,1.5-0.672,1.5-1.5s-0.671-1.5-1.5-1.5H18.7c-0.829,0-1.5,0.672-1.5,1.5   S17.872,56.717,18.7,56.717z"
   id="path2"
   style="fill:#0065f2;fill-opacity:1" />&#10;	<path
   d="M64.987,56.717h7.029v7.03c0,0.828,0.672,1.5,1.5,1.5s1.5-0.672,1.5-1.5v-7.03h7.03c0.828,0,1.5-0.672,1.5-1.5   s-0.672-1.5-1.5-1.5h-7.03v-7.03c0-0.829-0.672-1.5-1.5-1.5s-1.5,0.671-1.5,1.5v7.03h-7.029c-0.828,0-1.5,0.672-1.5,1.5   S64.159,56.717,64.987,56.717z"
   id="path3"
   style="fill:#0065f2;fill-opacity:1" />&#10;</g>&#10;</svg>
