<?xml version="1.0" encoding="UTF-8" standalone="no"?>
<svg
   id="Layer_1"
   data-name="Layer 1"
   viewBox="0 0 101 101"
   version="1.1"
   sodipodi:docname="Tilda_Icons_47dlvr_food_blue.svg"
   inkscape:version="1.3 (0e150ed6c4, 2023-07-21)"
   xmlns:inkscape="http://www.inkscape.org/namespaces/inkscape"
   xmlns:sodipodi="http://sodipodi.sourceforge.net/DTD/sodipodi-0.dtd"
   xmlns="http://www.w3.org/2000/svg"
   xmlns:svg="http://www.w3.org/2000/svg">
  <defs
     id="defs3" />
  <sodipodi:namedview
     id="namedview3"
     pagecolor="#ffffff"
     bordercolor="#666666"
     borderopacity="1.0"
     inkscape:showpageshadow="2"
     inkscape:pageopacity="0.0"
     inkscape:pagecheckerboard="0"
     inkscape:deskcolor="#d1d1d1"
     inkscape:zoom="8.3069307"
     inkscape:cx="50.439809"
     inkscape:cy="50.5"
     inkscape:window-width="1920"
     inkscape:window-height="1017"
     inkscape:window-x="-8"
     inkscape:window-y="-8"
     inkscape:window-maximized="1"
     inkscape:current-layer="Layer_1" />
  <path
     d="M98.5,55H95A38.63,38.63,0,0,0,61.4,17.8a6.61,6.61,0,0,0,1.7-4.3A6.49,6.49,0,0,0,56.6,7,6.57,6.57,0,0,0,50,13.5a6,6,0,0,0,1.7,4.3A38.63,38.63,0,0,0,18,55H13.5a1.5,1.5,0,0,0,0,3H27.3a4.35,4.35,0,0,1-.7.6C23.1,62.1,22,66.8,23.9,70H6.5a1.5,1.5,0,0,0,0,3h23a11.91,11.91,0,0,0,7.9-3.6c3.5-3.5,4.6-8.2,2.7-11.4H78.3a4.35,4.35,0,0,1-.7.6C74.1,62.1,73,66.9,74.9,70H63.5a1.5,1.5,0,0,0,0,3h17a11.91,11.91,0,0,0,7.9-3.6c3.5-3.5,4.6-8.3,2.7-11.4h7.4a1.5,1.5,0,0,0,0-3Zm-42-45A3.5,3.5,0,1,1,53,13.5,3.54,3.54,0,0,1,56.5,10ZM37.1,58.9c1.8,1.8.9,5.6-1.8,8.3S28.7,70.8,27,69s-.9-5.6,1.8-8.3A8.61,8.61,0,0,1,34.6,58,3.84,3.84,0,0,1,37.1,58.9ZM35,55H21a35.51,35.51,0,0,1,71,0H35Zm53.1,3.9c1.8,1.8.9,5.6-1.8,8.3S79.7,70.8,78,69s-.9-5.6,1.8-8.3A8.61,8.61,0,0,1,85.6,58,3.84,3.84,0,0,1,88.1,58.9Z"
     id="path1"
     style="fill:#0065f2;fill-opacity:1" />
  <path
     d="M48.4,27.6A29.73,29.73,0,0,0,29.6,43.8a1.59,1.59,0,0,0,.7,2,1.27,1.27,0,0,0,.6.1,1.51,1.51,0,0,0,1.4-.9A26.3,26.3,0,0,1,49.2,30.5a1.5,1.5,0,0,0-.8-2.9Z"
     id="path2"
     style="fill:#0065f2;fill-opacity:1" />
  <path
     d="M67.5,82h-40a1.5,1.5,0,0,0,0,3h40a1.5,1.5,0,0,0,0-3Z"
     id="path3"
     style="fill:#0065f2;fill-opacity:1" />
</svg>
