<?xml version="1.0" encoding="UTF-8" standalone="no"?>
<!-- Generator: Adobe Illustrator 21.1.0, SVG Export Plug-In . SVG Version: 6.00 Build 0)  -->

<svg
   version="1.1"
   id="Layer_1"
   x="0px"
   y="0px"
   viewBox="0 0 100.75 100.749"
   style="enable-background:new 0 0 100.75 100.749;"
   xml:space="preserve"
   sodipodi:docname="Tilda_Icons_25as_repair_part_blue.svg"
   inkscape:version="1.3 (0e150ed6c4, 2023-07-21)"
   xmlns:inkscape="http://www.inkscape.org/namespaces/inkscape"
   xmlns:sodipodi="http://sodipodi.sourceforge.net/DTD/sodipodi-0.dtd"
   xmlns="http://www.w3.org/2000/svg"
   xmlns:svg="http://www.w3.org/2000/svg"><defs
   id="defs3" /><sodipodi:namedview
   id="namedview3"
   pagecolor="#ffffff"
   bordercolor="#666666"
   borderopacity="1.0"
   inkscape:showpageshadow="2"
   inkscape:pageopacity="0.0"
   inkscape:pagecheckerboard="0"
   inkscape:deskcolor="#d1d1d1"
   inkscape:zoom="8.327626"
   inkscape:cx="50.434541"
   inkscape:cy="50.3745"
   inkscape:window-width="1920"
   inkscape:window-height="1017"
   inkscape:window-x="-8"
   inkscape:window-y="-8"
   inkscape:window-maximized="1"
   inkscape:current-layer="Layer_1" />&#10;<g
   id="g3"
   style="fill:#0065f2;fill-opacity:1">&#10;	<path
   d="M75.651,9.501H42.317c-0.472,0-0.917,0.222-1.2,0.6L21.122,36.772c-0.195,0.26-0.3,0.576-0.3,0.9v27.224   c0,0.828,0.671,1.5,1.5,1.5c24.817,0,25.163,23.6,25.165,24.604c0.002,0.827,0.673,1.498,1.5,1.498h26.665   c0.828,0,1.5-0.672,1.5-1.5V11.001C77.151,10.172,76.479,9.501,75.651,9.501z M74.151,89.498H50.398   c-0.507-5.636-3.906-25.246-26.577-26.075V38.172l19.245-25.671h31.084V89.498z"
   id="path1"
   style="fill:#0065f2;fill-opacity:1" />&#10;	<path
   d="M30.049,38.163c0.253,0.51,0.774,0.833,1.343,0.833h37.216c0.828,0,1.5-0.671,1.5-1.5V18.136c0-0.829-0.672-1.5-1.5-1.5   h-22.55c-0.47,0-0.912,0.22-1.196,0.594L30.196,36.589C29.853,37.043,29.795,37.653,30.049,38.163z M46.804,19.636h20.305v16.359   H34.41L46.804,19.636z"
   id="path2"
   style="fill:#0065f2;fill-opacity:1" />&#10;	<path
   d="M68.608,44.646h-8.884c-0.828,0-1.5,0.671-1.5,1.5s0.672,1.5,1.5,1.5h8.884c0.828,0,1.5-0.671,1.5-1.5   S69.437,44.646,68.608,44.646z"
   id="path3"
   style="fill:#0065f2;fill-opacity:1" />&#10;</g>&#10;</svg>
