<?xml version="1.0" encoding="UTF-8" standalone="no"?>
<!-- Generator: Adobe Illustrator 21.1.0, SVG Export Plug-In . SVG Version: 6.00 Build 0)  -->
<svg version="1.1" id="Layer_1" x="0px" y="0px" viewBox="0 0 100.75 100.749" style="enable-background:new 0 0 100.75 100.749;" xml:space="preserve" sodipodi:docname="Tilda_Icons_25as_transmission-blue.svg" inkscape:version="1.3 (0e150ed6c4, 2023-07-21)" xmlns:inkscape="http://www.inkscape.org/namespaces/inkscape" xmlns:sodipodi="http://sodipodi.sourceforge.net/DTD/sodipodi-0.dtd" xmlns="http://www.w3.org/2000/svg" xmlns:svg="http://www.w3.org/2000/svg"><defs id="defs1"/><sodipodi:namedview id="namedview1" pagecolor="#ffffff" bordercolor="#666666" borderopacity="1.0" inkscape:showpageshadow="2" inkscape:pageopacity="0.0" inkscape:pagecheckerboard="0" inkscape:deskcolor="#d1d1d1" inkscape:zoom="8.327626" inkscape:cx="50.3745" inkscape:cy="50.3745" inkscape:window-width="1920" inkscape:window-height="1017" inkscape:window-x="-8" inkscape:window-y="-8" inkscape:window-maximized="1" inkscape:current-layer="Layer_1"/>
<path d="M93.995,22.82c0-6.447-5.246-11.693-11.693-11.693S70.609,16.373,70.609,22.82c0,5.938,4.453,10.846,10.192,11.586V48.5  H52.5V34.406c5.74-0.74,10.193-5.648,10.193-11.586c0-6.447-5.246-11.693-11.693-11.693S39.307,16.373,39.307,22.82  c0,5.938,4.453,10.846,10.193,11.586V48.5H21.198V34.406c5.74-0.74,10.193-5.648,10.193-11.586c0-6.447-5.246-11.693-11.693-11.693  c-6.448,0-11.693,5.246-11.693,11.693c0,5.938,4.453,10.846,10.193,11.586v31.188c-5.74,0.74-10.193,5.647-10.193,11.585  c0,6.447,5.246,11.693,11.693,11.693c6.447,0,11.693-5.246,11.693-11.693c0-5.938-4.453-10.845-10.193-11.585V51.5H49.5v14.094  c-5.74,0.74-10.193,5.647-10.193,11.585c0,6.447,5.246,11.693,11.693,11.693s11.693-5.246,11.693-11.693  c0-5.938-4.453-10.845-10.193-11.585V51.5h29.802c0.828,0,1.5-0.672,1.5-1.5V34.406C89.542,33.666,93.995,28.758,93.995,22.82z   M42.307,22.82c0-4.793,3.899-8.693,8.693-8.693c4.794,0,8.693,3.899,8.693,8.693S55.794,31.513,51,31.513  C46.207,31.513,42.307,27.613,42.307,22.82z M11.005,22.82c0-4.793,3.9-8.693,8.693-8.693s8.693,3.899,8.693,8.693  s-3.899,8.693-8.693,8.693S11.005,27.613,11.005,22.82z M28.391,77.179c0,4.794-3.899,8.693-8.693,8.693s-8.693-3.899-8.693-8.693  c0-4.793,3.9-8.692,8.693-8.692S28.391,72.386,28.391,77.179z M59.693,77.179c0,4.794-3.899,8.693-8.693,8.693  c-4.793,0-8.693-3.899-8.693-8.693c0-4.793,3.899-8.692,8.693-8.692C55.794,68.486,59.693,72.386,59.693,77.179z M82.302,31.513  c-4.793,0-8.692-3.9-8.692-8.693s3.899-8.693,8.692-8.693c4.794,0,8.693,3.899,8.693,8.693S87.096,31.513,82.302,31.513z" id="path1" style="fill:#0065f2;fill-opacity:1"/>
</svg>