<?xml version="1.0" encoding="UTF-8" standalone="no"?>
<svg
   id="Layer_1"
   data-name="Layer 1"
   viewBox="0 0 101 101"
   version="1.1"
   sodipodi:docname="Tilda_Icons_47dlvr_pay_blue.svg"
   inkscape:version="1.3 (0e150ed6c4, 2023-07-21)"
   xmlns:inkscape="http://www.inkscape.org/namespaces/inkscape"
   xmlns:sodipodi="http://sodipodi.sourceforge.net/DTD/sodipodi-0.dtd"
   xmlns="http://www.w3.org/2000/svg"
   xmlns:svg="http://www.w3.org/2000/svg">
  <defs
     id="defs4" />
  <sodipodi:namedview
     id="namedview4"
     pagecolor="#ffffff"
     bordercolor="#666666"
     borderopacity="1.0"
     inkscape:showpageshadow="2"
     inkscape:pageopacity="0.0"
     inkscape:pagecheckerboard="0"
     inkscape:deskcolor="#d1d1d1"
     inkscape:zoom="8.3069307"
     inkscape:cx="50.439809"
     inkscape:cy="50.5"
     inkscape:window-width="1920"
     inkscape:window-height="1017"
     inkscape:window-x="-8"
     inkscape:window-y="-8"
     inkscape:window-maximized="1"
     inkscape:current-layer="Layer_1" />
  <path
     d="M42.31,45.14A12.47,12.47,0,1,0,54.78,57.61,12.49,12.49,0,0,0,42.31,45.14Zm0,21.94a9.47,9.47,0,1,1,9.47-9.47A9.49,9.49,0,0,1,42.31,67.08Z"
     id="path1"
     style="fill:#0065f2;fill-opacity:1" />
  <path
     d="M16.5,45A1.5,1.5,0,0,0,15,46.5v22a1.5,1.5,0,0,0,3,0v-22A1.5,1.5,0,0,0,16.5,45Z"
     id="path2"
     style="fill:#0065f2;fill-opacity:1" />
  <path
     d="M67.5,45A1.5,1.5,0,0,0,66,46.5v22a1.5,1.5,0,0,0,3,0v-22A1.5,1.5,0,0,0,67.5,45Z"
     id="path3"
     style="fill:#0065f2;fill-opacity:1" />
  <path
     d="M89.5,22h-65A1.5,1.5,0,0,0,23,23.5V30H17.5A1.5,1.5,0,0,0,16,31.5V39H9.5A1.5,1.5,0,0,0,8,40.5v35A1.5,1.5,0,0,0,9.5,77h65A1.5,1.5,0,0,0,76,75.5V68h6.5A1.5,1.5,0,0,0,84,66.5V60h5.5A1.5,1.5,0,0,0,91,58.5v-35A1.5,1.5,0,0,0,89.5,22ZM73,74H11V42H73Zm8-9H76V40.5A1.5,1.5,0,0,0,74.5,39H19V33H81Zm7-8H84V31.5A1.5,1.5,0,0,0,82.5,30H26V25H88Z"
     id="path4"
     style="fill:#0065f2;fill-opacity:1" />
</svg>
