<?xml version="1.0" encoding="UTF-8" standalone="no"?>
<!-- Generator: Adobe Illustrator 21.1.0, SVG Export Plug-In . SVG Version: 6.00 Build 0)  -->

<svg
   version="1.1"
   id="Layer_1"
   x="0px"
   y="0px"
   viewBox="0 0 100.353 100.353"
   style="enable-background:new 0 0 100.353 100.353;"
   xml:space="preserve"
   sodipodi:docname="Tilda_Icons_10cw_temperature_blue.svg"
   inkscape:version="1.3 (0e150ed6c4, 2023-07-21)"
   xmlns:inkscape="http://www.inkscape.org/namespaces/inkscape"
   xmlns:sodipodi="http://sodipodi.sourceforge.net/DTD/sodipodi-0.dtd"
   xmlns="http://www.w3.org/2000/svg"
   xmlns:svg="http://www.w3.org/2000/svg"><defs
   id="defs5" /><sodipodi:namedview
   id="namedview5"
   pagecolor="#ffffff"
   bordercolor="#666666"
   borderopacity="1.0"
   inkscape:showpageshadow="2"
   inkscape:pageopacity="0.0"
   inkscape:pagecheckerboard="0"
   inkscape:deskcolor="#d1d1d1"
   inkscape:zoom="8.3604877"
   inkscape:cx="50.116693"
   inkscape:cy="50.176498"
   inkscape:window-width="1920"
   inkscape:window-height="1017"
   inkscape:window-x="-8"
   inkscape:window-y="-8"
   inkscape:window-maximized="1"
   inkscape:current-layer="Layer_1" />&#10;<g
   id="g5"
   style="fill:#0065f2;fill-opacity:1">&#10;	<path
   style="fill:#0065f2;fill-opacity:1"
   d="M54.354,58.447V11.574c0-5.292-4.305-9.598-9.596-9.598c-5.295,0-9.603,4.306-9.603,9.598v46.889   c-6.921,3.577-11.35,10.772-11.35,18.61c0,11.552,9.399,20.95,20.953,20.95c11.549,0,20.946-9.398,20.946-20.95   C65.704,69.169,61.298,62.022,54.354,58.447z M44.758,95.023c-9.899,0-17.953-8.052-17.953-17.95   c0-6.923,4.029-13.264,10.276-16.224c0.62-0.184,1.074-0.752,1.074-1.431V11.573c0-3.638,2.962-6.598,6.603-6.598   c3.637,0,6.596,2.959,6.596,6.598c0,0,0.066,46.861-0.027,47.083c-0.009,1.025,0.049,1.543,0.797,1.966   c0.109,0.046,0.213,0.102,0.321,0.15c0.095,0.059,0.197,0.105,0.305,0.142c6.297,2.952,9.954,9.159,9.954,16.158   C62.704,86.971,54.653,95.023,44.758,95.023z"
   id="path1" />&#10;	<path
   style="fill:#0065f2;fill-opacity:1"
   d="M46.251,68.074V17.188c0-0.829-0.671-1.5-1.5-1.5s-1.5,0.671-1.5,1.5v50.886   c-4.74,0.727-8.386,4.822-8.386,9.764c0,5.454,4.435,9.89,9.886,9.89c5.456,0,9.894-4.437,9.894-9.89   C54.644,72.895,50.995,68.8,46.251,68.074z M44.751,84.728c-3.797,0-6.886-3.091-6.886-6.89s3.089-6.89,6.886-6.89   c3.801,0,6.894,3.091,6.894,6.89S48.552,84.728,44.751,84.728z"
   id="path2" />&#10;	<path
   style="fill:#0065f2;fill-opacity:1"
   d="M59.16,17.77h15.536c0.829,0,1.5-0.671,1.5-1.5s-0.671-1.5-1.5-1.5H59.16   c-0.829,0-1.5,0.671-1.5,1.5S58.331,17.77,59.16,17.77z"
   id="path3" />&#10;	<path
   style="fill:#0065f2;fill-opacity:1"
   d="M59.16,33.477h7.769c0.829,0,1.5-0.671,1.5-1.5s-0.671-1.5-1.5-1.5H59.16   c-0.829,0-1.5,0.671-1.5,1.5C57.66,32.806,58.331,33.477,59.16,33.477z"
   id="path4" />&#10;	<path
   style="fill:#0065f2;fill-opacity:1"
   d="M74.696,47.467H59.16c-0.829,0-1.5,0.671-1.5,1.5s0.671,1.5,1.5,1.5h15.536   c0.829,0,1.5-0.671,1.5-1.5S75.525,47.467,74.696,47.467z"
   id="path5" />&#10;</g>&#10;</svg>
