<?xml version="1.0" encoding="UTF-8" standalone="no"?>
<!-- Generator: Adobe Illustrator 21.1.0, SVG Export Plug-In . SVG Version: 6.00 Build 0)  -->

<svg
   version="1.1"
   id="Layer_1"
   x="0px"
   y="0px"
   viewBox="0 0 100.4 100.4"
   style="enable-background:new 0 0 100.4 100.4;"
   xml:space="preserve"
   sodipodi:docname="Tilda_Icons_1ed_purse_blue.svg"
   inkscape:version="1.3 (0e150ed6c4, 2023-07-21)"
   xmlns:inkscape="http://www.inkscape.org/namespaces/inkscape"
   xmlns:sodipodi="http://sodipodi.sourceforge.net/DTD/sodipodi-0.dtd"
   xmlns="http://www.w3.org/2000/svg"
   xmlns:svg="http://www.w3.org/2000/svg"><defs
   id="defs2" /><sodipodi:namedview
   id="namedview2"
   pagecolor="#ffffff"
   bordercolor="#666666"
   borderopacity="1.0"
   inkscape:showpageshadow="2"
   inkscape:pageopacity="0.0"
   inkscape:pagecheckerboard="0"
   inkscape:deskcolor="#d1d1d1"
   inkscape:zoom="8.3565736"
   inkscape:cx="50.140168"
   inkscape:cy="50.200001"
   inkscape:window-width="1920"
   inkscape:window-height="1017"
   inkscape:window-x="-8"
   inkscape:window-y="-8"
   inkscape:window-maximized="1"
   inkscape:current-layer="Layer_1" />&#10;<g
   id="g2"
   style="fill:#0065f2;fill-opacity:1">&#10;	<path
   d="M92.4,14.8H23.1c-0.4,0-0.8,0.2-1.1,0.5L6.6,31.2c0,0,0,0,0,0l0,0c0,0,0,0,0,0c-0.1,0.1-0.2,0.3-0.3,0.5c0,0,0,0,0,0   c-0.1,0.2-0.1,0.4-0.1,0.5v53.9c0,0.8,0.7,1.5,1.5,1.5h77c0.8,0,1.5-0.7,1.5-1.5V80h6.2c0.8,0,1.5-0.7,1.5-1.5V60.4   c0,0,0-0.1,0-0.1c0-0.1,0-0.1,0-0.2V38.2V16.3C93.9,15.5,93.2,14.8,92.4,14.8z M23.7,17.8h67.1v19.9l-4.7,5.8V32.3   c0-0.8-0.7-1.5-1.5-1.5H11.2L23.7,17.8z M83.2,84.7h-74V33.8h74v12.4H66c-7,0-12.6,5.7-12.6,12.6c0,7,5.7,12.6,12.6,12.6h17.2V84.7   z M84.2,68.4H66c-5.3,0-9.6-4.3-9.6-9.6c0-5.3,4.3-9.6,9.6-9.6h18.7c0.5,0,0.9-0.2,1.2-0.6l5-6.1v17.4L84.2,68.4z M90.9,77h-4.7   v-6.2c0,0,0,0,0,0l4.7-6L90.9,77L90.9,77z"
   id="path1"
   style="fill:#0065f2;fill-opacity:1" />&#10;	<path
   d="M32.7,25.6h38c0.8,0,1.5-0.7,1.5-1.5s-0.7-1.5-1.5-1.5h-38c-0.8,0-1.5,0.7-1.5,1.5S31.8,25.6,32.7,25.6z"
   id="path2"
   style="fill:#0065f2;fill-opacity:1" />&#10;</g>&#10;</svg>
