<?xml version="1.0" encoding="UTF-8" standalone="no"?>
<!-- Generator: Adobe Illustrator 21.1.0, SVG Export Plug-In . SVG Version: 6.00 Build 0)  -->

<svg
   version="1.1"
   id="Layer_1"
   x="0px"
   y="0px"
   viewBox="0 0 100.8 100.7"
   style="enable-background:new 0 0 100.8 100.7;"
   xml:space="preserve"
   sodipodi:docname="Tilda_Icons_25as_vehicle_inspection_blue.svg"
   inkscape:version="1.3 (0e150ed6c4, 2023-07-21)"
   xmlns:inkscape="http://www.inkscape.org/namespaces/inkscape"
   xmlns:sodipodi="http://sodipodi.sourceforge.net/DTD/sodipodi-0.dtd"
   xmlns="http://www.w3.org/2000/svg"
   xmlns:svg="http://www.w3.org/2000/svg"><defs
   id="defs3" /><sodipodi:namedview
   id="namedview3"
   pagecolor="#ffffff"
   bordercolor="#666666"
   borderopacity="1.0"
   inkscape:showpageshadow="2"
   inkscape:pageopacity="0.0"
   inkscape:pagecheckerboard="0"
   inkscape:deskcolor="#d1d1d1"
   inkscape:zoom="8.3316785"
   inkscape:cx="50.41001"
   inkscape:cy="50.349998"
   inkscape:window-width="1920"
   inkscape:window-height="1017"
   inkscape:window-x="-8"
   inkscape:window-y="-8"
   inkscape:window-maximized="1"
   inkscape:current-layer="Layer_1" />&#10;<g
   id="g2"
   style="fill:#0065f2;fill-opacity:1">&#10;	<path
   d="M0.5,74.6v6.7"
   id="path1"
   style="fill:#0065f2;fill-opacity:1" />&#10;	<path
   d="M92.9,10.5H81.6V5.9c0-0.8-0.7-1.5-1.5-1.5S78.6,5,78.6,5.9v4.6H26.1V5.9c0-0.8-0.7-1.5-1.5-1.5S23.1,5,23.1,5.9v4.6h-12   c-0.8,0-1.5,0.7-1.5,1.5v48c0,0.8,0.7,1.5,1.5,1.5s1.5-0.7,1.5-1.5V27.8h78.8v46.6h-8.6c-0.8,0-1.5,0.7-1.5,1.5s0.7,1.5,1.5,1.5   h10.1c0.8,0,1.5-0.7,1.5-1.5V12C94.4,11.1,93.7,10.5,92.9,10.5z M12.6,24.8V13.5h10.5v4.6c0,0.8,0.7,1.5,1.5,1.5s1.5-0.7,1.5-1.5   v-4.6h52.5v4.6c0,0.8,0.7,1.5,1.5,1.5s1.5-0.7,1.5-1.5v-4.6h9.8v11.3H12.6z"
   id="path2"
   style="fill:#0065f2;fill-opacity:1" />&#10;</g>&#10;<path
   d="M70.7,89.4c0.9,0,1.6-0.7,1.7-1.6l0.2-9.6c0-0.7-0.4-1.3-1-1.5l-15.2-6.8l-5.9-9.5c-0.3-0.5-0.8-0.8-1.4-0.8H27.6  c-0.6,0-1.1,0.3-1.4,0.8l-6.2,10h-8.8c-0.9,0-1.7,0.7-1.7,1.7v15.8c0,0.9,0.7,1.7,1.7,1.7h6c0.6,3.3,3.5,5.8,7,5.8  c3.5,0,6.4-2.5,7-5.8h16.2c0.6,3.3,3.5,5.8,7,5.8c3.5,0,6.4-2.5,7-5.8C61.1,89.4,70.7,89.4,70.7,89.4z M12.8,73.6h7.8  c0,0,0.1,0,0.1,0c0,0,0.1,0,0.1,0c0.6,0,1.1-0.3,1.4-0.8l6.2-10h19.6l5.7,9.1c0,0,0,0,0,0c0.1,0.1,0.1,0.2,0.2,0.3  c0,0,0.1,0.1,0.1,0.1c0,0,0.1,0.1,0.1,0.1c0.1,0.1,0.2,0.1,0.3,0.2c0,0,0,0,0,0l14.7,6.5L69,86h-8.1c-0.9-2.9-3.6-5-6.8-5  c-3.2,0-5.9,2.1-6.8,5H30.9c-0.9-2.9-3.6-5-6.8-5s-5.9,2.1-6.8,5h-4.5L12.8,73.6L12.8,73.6z M24.1,91.8c-2.1,0-3.7-1.7-3.7-3.7  c0-2.1,1.7-3.7,3.7-3.7s3.7,1.7,3.7,3.7C27.8,90.2,26.2,91.8,24.1,91.8z M54.2,91.8c-2.1,0-3.7-1.7-3.7-3.7c0-2.1,1.7-3.7,3.7-3.7  c2.1,0,3.7,1.7,3.7,3.7C57.9,90.2,56.2,91.8,54.2,91.8z"
   id="path3"
   style="fill:#0065f2;fill-opacity:1" />&#10;</svg>
