<?xml version="1.0" encoding="UTF-8" standalone="no"?>
<svg
   id="Layer_1"
   data-name="Layer 1"
   viewBox="0 0 101 101"
   version="1.1"
   sodipodi:docname="Tilda_Icons_47dlvr_barcode_blue.svg"
   inkscape:version="1.3 (0e150ed6c4, 2023-07-21)"
   xmlns:inkscape="http://www.inkscape.org/namespaces/inkscape"
   xmlns:sodipodi="http://sodipodi.sourceforge.net/DTD/sodipodi-0.dtd"
   xmlns="http://www.w3.org/2000/svg"
   xmlns:svg="http://www.w3.org/2000/svg">
  <defs
     id="defs12" />
  <sodipodi:namedview
     id="namedview12"
     pagecolor="#ffffff"
     bordercolor="#666666"
     borderopacity="1.0"
     inkscape:showpageshadow="2"
     inkscape:pageopacity="0.0"
     inkscape:pagecheckerboard="0"
     inkscape:deskcolor="#d1d1d1"
     inkscape:zoom="8.3069307"
     inkscape:cx="50.439809"
     inkscape:cy="50.5"
     inkscape:window-width="1920"
     inkscape:window-height="1017"
     inkscape:window-x="-8"
     inkscape:window-y="-8"
     inkscape:window-maximized="1"
     inkscape:current-layer="Layer_1" />
  <path
     d="M9,38a1.5,1.5,0,0,0,1.5-1.5V27H20a1.5,1.5,0,0,0,0-3H9a1.5,1.5,0,0,0-1.5,1.5v11A1.5,1.5,0,0,0,9,38Z"
     id="path1"
     style="fill:#0065f2;fill-opacity:1" />
  <path
     d="M20,74H10.5V64.5a1.5,1.5,0,0,0-3,0v11A1.5,1.5,0,0,0,9,77H20a1.5,1.5,0,0,0,0-3Z"
     id="path2"
     style="fill:#0065f2;fill-opacity:1" />
  <path
     d="M92.5,63A1.5,1.5,0,0,0,91,64.5V74H81.5a1.5,1.5,0,0,0,0,3h11A1.5,1.5,0,0,0,94,75.5v-11A1.5,1.5,0,0,0,92.5,63Z"
     id="path3"
     style="fill:#0065f2;fill-opacity:1" />
  <path
     d="M92.5,24h-11a1.5,1.5,0,0,0,0,3H91v9.5a1.5,1.5,0,0,0,3,0v-11A1.5,1.5,0,0,0,92.5,24Z"
     id="path4"
     style="fill:#0065f2;fill-opacity:1" />
  <path
     d="M20.5,33A1.5,1.5,0,0,0,19,34.5v32a1.5,1.5,0,0,0,3,0v-32A1.5,1.5,0,0,0,20.5,33Z"
     id="path5"
     style="fill:#0065f2;fill-opacity:1" />
  <path
     d="M31.5,33A1.5,1.5,0,0,0,30,34.5v32a1.5,1.5,0,0,0,3,0v-32A1.5,1.5,0,0,0,31.5,33Z"
     id="path6"
     style="fill:#0065f2;fill-opacity:1" />
  <path
     d="M37.5,33A1.5,1.5,0,0,0,36,34.5v32a1.5,1.5,0,0,0,3,0v-32A1.5,1.5,0,0,0,37.5,33Z"
     id="path7"
     style="fill:#0065f2;fill-opacity:1" />
  <path
     d="M43.5,33A1.5,1.5,0,0,0,42,34.5v32a1.5,1.5,0,0,0,3,0v-32A1.5,1.5,0,0,0,43.5,33Z"
     id="path8"
     style="fill:#0065f2;fill-opacity:1" />
  <path
     d="M53.5,33A1.5,1.5,0,0,0,52,34.5v32a1.5,1.5,0,0,0,3,0v-32A1.5,1.5,0,0,0,53.5,33Z"
     id="path9"
     style="fill:#0065f2;fill-opacity:1" />
  <path
     d="M64.5,33A1.5,1.5,0,0,0,63,34.5v32a1.5,1.5,0,0,0,3,0v-32A1.5,1.5,0,0,0,64.5,33Z"
     id="path10"
     style="fill:#0065f2;fill-opacity:1" />
  <path
     d="M70.5,33A1.5,1.5,0,0,0,69,34.5v32a1.5,1.5,0,0,0,3,0v-32A1.5,1.5,0,0,0,70.5,33Z"
     id="path11"
     style="fill:#0065f2;fill-opacity:1" />
  <path
     d="M82,66.5v-32a1.5,1.5,0,0,0-3,0v32a1.5,1.5,0,0,0,3,0Z"
     id="path12"
     style="fill:#0065f2;fill-opacity:1" />
</svg>
