<?xml version="1.0" encoding="UTF-8" standalone="no"?>
<svg
   id="Layer_1"
   data-name="Layer 1"
   viewBox="0 0 101 101"
   version="1.1"
   sodipodi:docname="Tilda_Icons_47dlvr_card_blue.svg"
   inkscape:version="1.3 (0e150ed6c4, 2023-07-21)"
   xmlns:inkscape="http://www.inkscape.org/namespaces/inkscape"
   xmlns:sodipodi="http://sodipodi.sourceforge.net/DTD/sodipodi-0.dtd"
   xmlns="http://www.w3.org/2000/svg"
   xmlns:svg="http://www.w3.org/2000/svg">
  <defs
     id="defs3" />
  <sodipodi:namedview
     id="namedview3"
     pagecolor="#ffffff"
     bordercolor="#666666"
     borderopacity="1.0"
     inkscape:showpageshadow="2"
     inkscape:pageopacity="0.0"
     inkscape:pagecheckerboard="0"
     inkscape:deskcolor="#d1d1d1"
     inkscape:zoom="8.3069307"
     inkscape:cx="50.439809"
     inkscape:cy="50.5"
     inkscape:window-width="1920"
     inkscape:window-height="1017"
     inkscape:window-x="-8"
     inkscape:window-y="-8"
     inkscape:window-maximized="1"
     inkscape:current-layer="Layer_1" />
  <path
     d="M87.18,23H13.82A6.8,6.8,0,0,0,7,29.76V72.24A6.8,6.8,0,0,0,13.82,79H87.18A6.8,6.8,0,0,0,94,72.24V29.76A6.8,6.8,0,0,0,87.18,23ZM13.82,26H87.18A3.79,3.79,0,0,1,91,29.76V32H10V29.76A3.79,3.79,0,0,1,13.82,26ZM91,42H10V35H91ZM87.18,76H13.82A3.8,3.8,0,0,1,10,72.24V45H91V72.24A3.79,3.79,0,0,1,87.18,76Z"
     id="path1"
     style="fill:#0065f2;fill-opacity:1" />
  <path
     d="M20.08,60.7A4.93,4.93,0,1,0,25,65.63,4.93,4.93,0,0,0,20.08,60.7Zm0,6.85A1.93,1.93,0,1,1,22,65.63,1.92,1.92,0,0,1,20.08,67.55Z"
     id="path2"
     style="fill:#0065f2;fill-opacity:1" />
  <path
     d="M69.5,64h-39a1.5,1.5,0,0,0,0,3h39a1.5,1.5,0,0,0,0-3Z"
     id="path3"
     style="fill:#0065f2;fill-opacity:1" />
</svg>
