<?xml version="1.0" encoding="UTF-8" standalone="no"?>
<!-- Generator: Adobe Illustrator 21.0.0, SVG Export Plug-In . SVG Version: 6.00 Build 0)  -->

<svg
   version="1.1"
   id="Layer_1"
   x="0px"
   y="0px"
   viewBox="0 0 100.353 100.353"
   style="enable-background:new 0 0 100.353 100.353;"
   xml:space="preserve"
   sodipodi:docname="Tilda_Icons_10cw_kitchen_blue.svg"
   inkscape:version="1.3 (0e150ed6c4, 2023-07-21)"
   xmlns:inkscape="http://www.inkscape.org/namespaces/inkscape"
   xmlns:sodipodi="http://sodipodi.sourceforge.net/DTD/sodipodi-0.dtd"
   xmlns="http://www.w3.org/2000/svg"
   xmlns:svg="http://www.w3.org/2000/svg"><defs
   id="defs8" /><sodipodi:namedview
   id="namedview8"
   pagecolor="#ffffff"
   bordercolor="#666666"
   borderopacity="1.0"
   inkscape:showpageshadow="2"
   inkscape:pageopacity="0.0"
   inkscape:pagecheckerboard="0"
   inkscape:deskcolor="#d1d1d1"
   inkscape:zoom="8.3604877"
   inkscape:cx="50.116693"
   inkscape:cy="50.176498"
   inkscape:window-width="1920"
   inkscape:window-height="1017"
   inkscape:window-x="-8"
   inkscape:window-y="-8"
   inkscape:window-maximized="1"
   inkscape:current-layer="Layer_1" />&#10;<g
   id="g8"
   style="fill:#0065f2;fill-opacity:1">&#10;	<path
   style="fill:#0065f2;fill-opacity:1"
   d="M88.293,10.207H11.708c-0.829,0-1.5,0.671-1.5,1.5v76.585c0,0.829,0.671,1.5,1.5,1.5h76.585   c0.828,0,1.5-0.671,1.5-1.5V11.707C89.793,10.879,89.121,10.207,88.293,10.207z M86.793,86.792H13.208V13.207h73.585V86.792z"
   id="path1" />&#10;	<path
   style="fill:#0065f2;fill-opacity:1"
   d="M31.93,44.333c7.767,0,14.085-6.319,14.085-14.087c0-7.767-6.319-14.086-14.085-14.086   c-7.769,0-14.088,6.319-14.088,14.086C17.842,38.014,24.162,44.333,31.93,44.333z M31.93,19.16c6.112,0,11.085,4.973,11.085,11.086   S38.042,41.333,31.93,41.333c-6.114,0-11.088-4.974-11.088-11.087S25.816,19.16,31.93,19.16z"
   id="path2" />&#10;	<path
   style="fill:#0065f2;fill-opacity:1"
   d="M68.743,44.333c7.767,0,14.085-6.319,14.085-14.087c0-7.767-6.318-14.086-14.085-14.086   c-7.769,0-14.089,6.319-14.089,14.086C54.654,38.014,60.974,44.333,68.743,44.333z M68.743,19.16   c6.112,0,11.085,4.973,11.085,11.086s-4.973,11.087-11.085,11.087c-6.114,0-11.089-4.974-11.089-11.087S62.629,19.16,68.743,19.16z   "
   id="path3" />&#10;	<path
   style="fill:#0065f2;fill-opacity:1"
   d="M31.93,76.472c7.767,0,14.085-6.319,14.085-14.087c0-7.767-6.319-14.086-14.085-14.086   c-7.769,0-14.088,6.319-14.088,14.086C17.842,70.153,24.162,76.472,31.93,76.472z M31.93,51.299   c6.112,0,11.085,4.973,11.085,11.086S38.042,73.472,31.93,73.472c-6.114,0-11.088-4.974-11.088-11.087S25.816,51.299,31.93,51.299z   "
   id="path4" />&#10;	<path
   style="fill:#0065f2;fill-opacity:1"
   d="M68.743,76.472c7.767,0,14.085-6.319,14.085-14.087c0-7.767-6.318-14.086-14.085-14.086   c-7.769,0-14.089,6.319-14.089,14.086C54.654,70.153,60.974,76.472,68.743,76.472z M68.743,51.299   c6.112,0,11.085,4.973,11.085,11.086s-4.973,11.087-11.085,11.087c-6.114,0-11.089-4.974-11.089-11.087   S62.629,51.299,68.743,51.299z"
   id="path5" />&#10;	<path
   style="fill:#0065f2;fill-opacity:1"
   d="M43.382,78.43c-0.829,0-1.5,0.671-1.5,1.5v4.315c0,0.829,0.671,1.5,1.5,1.5s1.5-0.671,1.5-1.5V79.93   C44.882,79.101,44.211,78.43,43.382,78.43z"
   id="path6" />&#10;	<path
   style="fill:#0065f2;fill-opacity:1"
   d="M50.297,85.745c0.829,0,1.5-0.671,1.5-1.5V79.93c0-0.829-0.671-1.5-1.5-1.5s-1.5,0.671-1.5,1.5   v4.315C48.797,85.074,49.468,85.745,50.297,85.745z"
   id="path7" />&#10;	<path
   style="fill:#0065f2;fill-opacity:1"
   d="M57.216,78.43c-0.829,0-1.5,0.671-1.5,1.5v4.315c0,0.829,0.671,1.5,1.5,1.5s1.5-0.671,1.5-1.5V79.93   C58.716,79.101,58.044,78.43,57.216,78.43z"
   id="path8" />&#10;</g>&#10;</svg>
