<?xml version="1.0" encoding="UTF-8" standalone="no"?>
<!-- Generator: Adobe Illustrator 21.1.0, SVG Export Plug-In . SVG Version: 6.00 Build 0)  -->

<svg
   version="1.1"
   id="Layer_1"
   x="0px"
   y="0px"
   viewBox="0 0 100.353 100.352"
   style="enable-background:new 0 0 100.353 100.352;"
   xml:space="preserve"
   sodipodi:docname="Tilda_Icons_2web_structure_blue.svg"
   inkscape:version="1.3 (0e150ed6c4, 2023-07-21)"
   xmlns:inkscape="http://www.inkscape.org/namespaces/inkscape"
   xmlns:sodipodi="http://sodipodi.sourceforge.net/DTD/sodipodi-0.dtd"
   xmlns="http://www.w3.org/2000/svg"
   xmlns:svg="http://www.w3.org/2000/svg"><defs
   id="defs1" /><sodipodi:namedview
   id="namedview1"
   pagecolor="#ffffff"
   bordercolor="#666666"
   borderopacity="1.0"
   inkscape:showpageshadow="2"
   inkscape:pageopacity="0.0"
   inkscape:pagecheckerboard="0"
   inkscape:deskcolor="#d1d1d1"
   inkscape:zoom="8.360571"
   inkscape:cx="50.235803"
   inkscape:cy="50.175999"
   inkscape:window-width="1920"
   inkscape:window-height="1017"
   inkscape:window-x="-8"
   inkscape:window-y="-8"
   inkscape:window-maximized="1"
   inkscape:current-layer="Layer_1" />&#10;<path
   d="M90.584,66.621H74.722V54.417h15.621c0.828,0,1.5-0.672,1.5-1.5V36.106c0-0.829-0.672-1.5-1.5-1.5H74.875V20.218  c0-0.829-0.672-1.5-1.5-1.5H33.958v-6.906c0-0.829-0.671-1.5-1.5-1.5H9.417c-0.829,0-1.5,0.671-1.5,1.5v16.812  c0,0.829,0.671,1.5,1.5,1.5h10.02l0,9.736l0.312,16.783v9.708H9.73c-0.829,0-1.5,0.672-1.5,1.5v16.812c0,0.828,0.671,1.5,1.5,1.5  h23.041c0.829,0,1.5-0.672,1.5-1.5V67.851c0-0.828-0.671-1.5-1.5-1.5H22.75l0-9.736l-0.312-16.783v-9.708h10.021  c0.829,0,1.5-0.671,1.5-1.5v-6.906h37.917v12.888H45.858c-0.829,0-1.5,0.671-1.5,1.5v16.811c0,0.828,0.671,1.5,1.5,1.5h25.864  v12.204H45.643c-0.829,0-1.5,0.672-1.5,1.5v16.812c0,0.828,0.671,1.5,1.5,1.5h44.941c0.828,0,1.5-0.672,1.5-1.5V68.121  C92.084,67.293,91.412,66.621,90.584,66.621z M31.271,83.163H11.23V69.351h20.041V83.163z M30.958,27.124H10.917V13.312h20.041  V27.124z M47.358,37.606h41.485v13.811H47.358V37.606z M89.084,83.433H47.143V69.621h41.941V83.433z"
   id="path1"
   style="fill:#0065f2;fill-opacity:1" />&#10;</svg>
