<?xml version="1.0" encoding="UTF-8" standalone="no"?>
<svg
   id="Layer_1"
   data-name="Layer 1"
   viewBox="0 0 101 101"
   version="1.1"
   sodipodi:docname="Tilda_Icons_47dlvr_courier_blue.svg"
   inkscape:version="1.3 (0e150ed6c4, 2023-07-21)"
   xmlns:inkscape="http://www.inkscape.org/namespaces/inkscape"
   xmlns:sodipodi="http://sodipodi.sourceforge.net/DTD/sodipodi-0.dtd"
   xmlns="http://www.w3.org/2000/svg"
   xmlns:svg="http://www.w3.org/2000/svg">
  <defs
     id="defs3" />
  <sodipodi:namedview
     id="namedview3"
     pagecolor="#ffffff"
     bordercolor="#666666"
     borderopacity="1.0"
     inkscape:showpageshadow="2"
     inkscape:pageopacity="0.0"
     inkscape:pagecheckerboard="0"
     inkscape:deskcolor="#d1d1d1"
     inkscape:zoom="8.3069307"
     inkscape:cx="50.439809"
     inkscape:cy="50.5"
     inkscape:window-width="1920"
     inkscape:window-height="1017"
     inkscape:window-x="-8"
     inkscape:window-y="-8"
     inkscape:window-maximized="1"
     inkscape:current-layer="Layer_1" />
  <path
     d="M50.79,48.79A31.74,31.74,0,0,0,19.08,80.5a1.5,1.5,0,0,0,1.5,1.5H81a1.5,1.5,0,0,0,1.5-1.5A31.75,31.75,0,0,0,50.79,48.79ZM22.12,79a28.71,28.71,0,0,1,57.34,0Z"
     id="path1"
     style="fill:#0065f2;fill-opacity:1" />
  <path
     d="M50.26,45.67A18.35,18.35,0,0,0,68.59,27.35c0-.46,0-.9-.07-1.35h7a1.5,1.5,0,0,0,0-3H68A18.31,18.31,0,1,0,50.26,45.67Zm0-33.65A15.35,15.35,0,0,1,65,23H35.57A15.35,15.35,0,0,1,50.26,12ZM35,26H65.52c0,.44.07.89.07,1.35a15.33,15.33,0,0,1-30.65,0Q34.94,26.66,35,26Z"
     id="path2"
     style="fill:#0065f2;fill-opacity:1" />
  <path
     d="M63.5,61A6.5,6.5,0,1,0,70,67.5,6.51,6.51,0,0,0,63.5,61Zm0,10A3.5,3.5,0,1,1,67,67.5,3.5,3.5,0,0,1,63.5,71Z"
     id="path3"
     style="fill:#0065f2;fill-opacity:1" />
</svg>
