<?xml version="1.0" encoding="UTF-8" standalone="no"?>
<!-- Generator: Adobe Illustrator 21.0.0, SVG Export Plug-In . SVG Version: 6.00 Build 0)  -->

<svg
   version="1.1"
   id="Layer_1"
   x="0px"
   y="0px"
   viewBox="0 0 100.353 100.353"
   style="enable-background:new 0 0 100.353 100.353;"
   xml:space="preserve"
   sodipodi:docname="Tilda_Icons_10cw_mac_blue.svg"
   inkscape:version="1.3 (0e150ed6c4, 2023-07-21)"
   xmlns:inkscape="http://www.inkscape.org/namespaces/inkscape"
   xmlns:sodipodi="http://sodipodi.sourceforge.net/DTD/sodipodi-0.dtd"
   xmlns="http://www.w3.org/2000/svg"
   xmlns:svg="http://www.w3.org/2000/svg"><defs
   id="defs2" /><sodipodi:namedview
   id="namedview2"
   pagecolor="#ffffff"
   bordercolor="#666666"
   borderopacity="1.0"
   inkscape:showpageshadow="2"
   inkscape:pageopacity="0.0"
   inkscape:pagecheckerboard="0"
   inkscape:deskcolor="#d1d1d1"
   inkscape:zoom="8.3604877"
   inkscape:cx="50.116693"
   inkscape:cy="50.176498"
   inkscape:window-width="1920"
   inkscape:window-height="1017"
   inkscape:window-x="-8"
   inkscape:window-y="-8"
   inkscape:window-maximized="1"
   inkscape:current-layer="Layer_1" />&#10;<g
   id="g2"
   style="fill:#0065f2;fill-opacity:1">&#10;	<path
   style="fill:#0065f2;fill-opacity:1"
   d="M83.873,4.861H16.131c-6.07,0-11.009,4.939-11.009,11.009v46.622   c0,6.069,4.938,11.007,11.009,11.007h24.068v18.64H21.544c-0.829,0-1.5,0.671-1.5,1.5s0.671,1.5,1.5,1.5h20.155h16.605h20.155   c0.829,0,1.5-0.671,1.5-1.5s-0.671-1.5-1.5-1.5H59.804v-18.64h24.068c6.068,0,11.005-4.938,11.005-11.007V15.87   C94.878,9.8,89.941,4.861,83.873,4.861z M16.131,7.861h67.742c4.414,0,8.005,3.593,8.005,8.009v35.35H8.123V15.87   C8.123,11.453,11.715,7.861,16.131,7.861z M56.805,92.139H43.2v-18.64h13.605V92.139z M83.873,70.499H58.305H41.7H16.132   c-4.416,0-8.009-3.592-8.009-8.007v-8.271h83.755v8.271C91.878,66.907,88.287,70.499,83.873,70.499z"
   id="path1" />&#10;	<path
   style="fill:#0065f2;fill-opacity:1"
   d="M50.002,57.055c-3.097,0-5.616,2.518-5.616,5.612s2.519,5.612,5.616,5.612   c3.095,0,5.612-2.518,5.612-5.612C55.614,59.573,53.097,57.055,50.002,57.055z M50.002,65.279c-1.442,0-2.616-1.172-2.616-2.612   s1.173-2.612,2.616-2.612c1.44,0,2.612,1.172,2.612,2.612S51.442,65.279,50.002,65.279z"
   id="path2" />&#10;</g>&#10;</svg>
