<?xml version="1.0" encoding="UTF-8" standalone="no"?>
<!-- Generator: Adobe Illustrator 21.1.0, SVG Export Plug-In . SVG Version: 6.00 Build 0)  -->

<svg
   version="1.1"
   id="Layer_1"
   x="0px"
   y="0px"
   viewBox="0 0 100.75 100.749"
   style="enable-background:new 0 0 100.75 100.749;"
   xml:space="preserve"
   sodipodi:docname="Tilda_Icons_25as_oil_blue.svg"
   inkscape:version="1.3 (0e150ed6c4, 2023-07-21)"
   xmlns:inkscape="http://www.inkscape.org/namespaces/inkscape"
   xmlns:sodipodi="http://sodipodi.sourceforge.net/DTD/sodipodi-0.dtd"
   xmlns="http://www.w3.org/2000/svg"
   xmlns:svg="http://www.w3.org/2000/svg"><defs
   id="defs2" /><sodipodi:namedview
   id="namedview2"
   pagecolor="#ffffff"
   bordercolor="#666666"
   borderopacity="1.0"
   inkscape:showpageshadow="2"
   inkscape:pageopacity="0.0"
   inkscape:pagecheckerboard="0"
   inkscape:deskcolor="#d1d1d1"
   inkscape:zoom="8.327626"
   inkscape:cx="50.434541"
   inkscape:cy="50.3745"
   inkscape:window-width="1920"
   inkscape:window-height="1017"
   inkscape:window-x="-8"
   inkscape:window-y="-8"
   inkscape:window-maximized="1"
   inkscape:current-layer="Layer_1" />&#10;<g
   id="g2"
   style="fill:#0065f2;fill-opacity:1">&#10;	<path
   d="M84.809,68.167c0.109-0.721-0.316-1.416-1.009-1.647L57.325,57.68l8.312-8.312c0.281-0.281,0.439-0.663,0.439-1.061   s-0.158-0.779-0.439-1.061L49.972,31.583l2.974-2.975l4.59,4.59c0.293,0.293,0.677,0.439,1.061,0.439s0.768-0.146,1.061-0.439   c0.586-0.585,0.586-1.535,0-2.121l-5.649-5.649c-0.001-0.001-0.001-0.002-0.001-0.002s-0.002-0.001-0.002-0.001l-5.541-5.542   c-0.586-0.586-1.535-0.586-2.121,0c-0.586,0.585-0.586,1.535,0,2.121l4.483,4.483l-2.974,2.975L31.14,12.751   c0,0-0.001-0.001-0.001-0.001L20.95,2.562c-0.403-0.404-1.001-0.542-1.54-0.361c-0.54,0.182-0.93,0.654-1.007,1.219l-3.116,22.859   c-0.01,0.071-0.008,0.14-0.007,0.209l-6.728,6.728c-0.586,0.585-0.586,1.536,0,2.121L43.05,69.834   c0.001,0.001,0.002,0.001,0.003,0.002c0.14,0.14,0.307,0.252,0.493,0.327c0.001,0,0.002,0,0.003,0.001   c0.174,0.071,0.364,0.11,0.562,0.11c0.011,0,0.021,0,0.032,0l39.215-0.832C84.086,69.427,84.699,68.889,84.809,68.167z    M20.967,6.821l6.99,6.989l-9.196,9.196L20.967,6.821z M30.078,15.931l32.377,32.377L44.11,66.652L11.733,34.275L30.078,15.931z    M47.81,67.195l7.144-7.144l19.693,6.575L47.81,67.195z"
   id="path1"
   style="fill:#0065f2;fill-opacity:1" />&#10;	<path
   d="M84.679,73.548c-0.249-0.521-0.775-0.854-1.354-0.854s-1.104,0.332-1.354,0.854c-1.041,2.178-6.232,13.221-6.232,16.743   c0,4.183,3.403,7.586,7.586,7.586s7.585-3.403,7.585-7.586C90.91,86.77,85.72,75.726,84.679,73.548z M83.325,94.877   c-2.528,0-4.586-2.058-4.586-4.586c0-1.801,2.44-7.785,4.586-12.533c2.145,4.749,4.585,10.733,4.585,12.533   C87.91,92.819,85.854,94.877,83.325,94.877z"
   id="path2"
   style="fill:#0065f2;fill-opacity:1" />&#10;</g>&#10;</svg>
