<?xml version="1.0" encoding="UTF-8" standalone="no"?>
<!-- Generator: Adobe Illustrator 21.1.0, SVG Export Plug-In . SVG Version: 6.00 Build 0)  -->

<svg
   version="1.1"
   id="Layer_1"
   x="0px"
   y="0px"
   viewBox="0 0 100.4 100.4"
   style="enable-background:new 0 0 100.4 100.4;"
   xml:space="preserve"
   sodipodi:docname="Tilda_Icons_1ed_phone_blue.svg"
   inkscape:version="1.3 (0e150ed6c4, 2023-07-21)"
   xmlns:inkscape="http://www.inkscape.org/namespaces/inkscape"
   xmlns:sodipodi="http://sodipodi.sourceforge.net/DTD/sodipodi-0.dtd"
   xmlns="http://www.w3.org/2000/svg"
   xmlns:svg="http://www.w3.org/2000/svg"><defs
   id="defs3" /><sodipodi:namedview
   id="namedview3"
   pagecolor="#ffffff"
   bordercolor="#666666"
   borderopacity="1.0"
   inkscape:showpageshadow="2"
   inkscape:pageopacity="0.0"
   inkscape:pagecheckerboard="0"
   inkscape:deskcolor="#d1d1d1"
   inkscape:zoom="8.3565736"
   inkscape:cx="50.140168"
   inkscape:cy="50.200001"
   inkscape:window-width="1920"
   inkscape:window-height="1017"
   inkscape:window-x="-8"
   inkscape:window-y="-8"
   inkscape:window-maximized="1"
   inkscape:current-layer="Layer_1" />&#10;<g
   id="g3"
   style="fill:#0065f2;fill-opacity:1">&#10;	<path
   d="M69.3,8.6H28c-5.3,0-9.7,4.3-9.7,9.6v66.2c0,5.3,4.3,9.6,9.7,9.6h41.3c5.3,0,9.7-4.3,9.7-9.6V18.2   C79,12.9,74.7,8.6,69.3,8.6z M76,84.4c0,3.7-3,6.6-6.7,6.6H28c-3.7,0-6.7-3-6.7-6.6V18.2c0-3.7,3-6.6,6.7-6.6h41.3   c3.7,0,6.7,3,6.7,6.6V84.4z"
   id="path1"
   style="fill:#0065f2;fill-opacity:1" />&#10;	<path
   d="M60.9,18.1H36.2c-0.8,0-1.5,0.7-1.5,1.5s0.7,1.5,1.5,1.5h24.7c0.8,0,1.5-0.7,1.5-1.5S61.7,18.1,60.9,18.1z"
   id="path2"
   style="fill:#0065f2;fill-opacity:1" />&#10;	<path
   d="M48.6,75.4c-2.8,0-5,2.3-5,5c0,1.3,0.5,2.6,1.5,3.5c0.9,0.9,2.2,1.4,3.5,1.4c0,0,0,0,0,0c2.8,0,5-2.3,5-5   C53.6,77.6,51.4,75.4,48.6,75.4z M48.7,82.4C48.7,82.4,48.7,82.4,48.7,82.4c-0.5,0-1-0.2-1.4-0.6c-0.4-0.4-0.6-0.9-0.6-1.4   c0-1.1,0.9-2,2-2c0,0,0,0,0,0c1.1,0,2,0.9,2,2C50.7,81.5,49.8,82.4,48.7,82.4z"
   id="path3"
   style="fill:#0065f2;fill-opacity:1" />&#10;</g>&#10;</svg>
