<?xml version="1.0" encoding="UTF-8" standalone="no"?>
<!-- Generator: Adobe Illustrator 21.1.0, SVG Export Plug-In . SVG Version: 6.00 Build 0)  -->

<svg
   version="1.1"
   id="Layer_1"
   x="0px"
   y="0px"
   viewBox="0 0 100.353 100.352"
   style="enable-background:new 0 0 100.353 100.352;"
   xml:space="preserve"
   sodipodi:docname="Tilda_Icons_2web_webcam_blue.svg"
   inkscape:version="1.3 (0e150ed6c4, 2023-07-21)"
   xmlns:inkscape="http://www.inkscape.org/namespaces/inkscape"
   xmlns:sodipodi="http://sodipodi.sourceforge.net/DTD/sodipodi-0.dtd"
   xmlns="http://www.w3.org/2000/svg"
   xmlns:svg="http://www.w3.org/2000/svg"><defs
   id="defs3" /><sodipodi:namedview
   id="namedview3"
   pagecolor="#ffffff"
   bordercolor="#666666"
   borderopacity="1.0"
   inkscape:showpageshadow="2"
   inkscape:pageopacity="0.0"
   inkscape:pagecheckerboard="0"
   inkscape:deskcolor="#d1d1d1"
   inkscape:zoom="8.360571"
   inkscape:cx="50.235803"
   inkscape:cy="50.175999"
   inkscape:window-width="1920"
   inkscape:window-height="1017"
   inkscape:window-x="-8"
   inkscape:window-y="-8"
   inkscape:window-maximized="1"
   inkscape:current-layer="Layer_1" />&#10;<g
   id="g3"
   style="fill:#0065f2;fill-opacity:1">&#10;	<path
   d="M50.287,28.185c-5.638,0-10.225,4.587-10.225,10.225s4.587,10.225,10.225,10.225c5.638,0,10.225-4.587,10.225-10.225   S55.925,28.185,50.287,28.185z M50.287,45.635c-3.984,0-7.225-3.241-7.225-7.225s3.241-7.225,7.225-7.225   c3.983,0,7.225,3.241,7.225,7.225S54.271,45.635,50.287,45.635z"
   id="path1"
   style="fill:#0065f2;fill-opacity:1" />&#10;	<path
   d="M68.3,38.36c0-10.017-8.149-18.167-18.167-18.167c-10.017,0-18.167,8.15-18.167,18.167s8.15,18.167,18.167,18.167   C60.15,56.527,68.3,48.377,68.3,38.36z M50.133,53.527c-8.363,0-15.167-6.804-15.167-15.167c0-8.363,6.804-15.167,15.167-15.167   S65.3,29.997,65.3,38.36C65.3,46.723,58.496,53.527,50.133,53.527z"
   id="path2"
   style="fill:#0065f2;fill-opacity:1" />&#10;	<path
   d="M74.938,82.644h-5.627c-7.144,0-12.969-5.698-13.204-12.785C70.975,67.113,82.276,54.06,82.276,38.41   c0-17.639-14.351-31.989-31.989-31.989c-17.639,0-31.989,14.35-31.989,31.989c0,15.484,11.06,28.431,25.694,31.363   c-0.191,7.128-6.036,12.87-13.208,12.87h-5.626c-0.829,0-1.5,0.672-1.5,1.5v7.622c0,0.828,0.671,1.5,1.5,1.5h49.781   c0.828,0,1.5-0.672,1.5-1.5v-7.622C76.438,83.316,75.767,82.644,74.938,82.644z M21.298,38.41   c0-15.984,13.004-28.989,28.989-28.989c15.984,0,28.989,13.004,28.989,28.989c0,15.985-13.005,28.989-28.989,28.989   C34.302,67.399,21.298,54.395,21.298,38.41z M73.438,90.266H26.657v-4.622h4.126c8.674,0,15.76-6.847,16.186-15.417   c1.091,0.113,2.198,0.172,3.318,0.172c0.958,0,1.904-0.05,2.841-0.133c0.445,8.552,7.523,15.378,16.184,15.378h4.127V90.266z"
   id="path3"
   style="fill:#0065f2;fill-opacity:1" />&#10;</g>&#10;</svg>
