<?xml version="1.0" encoding="UTF-8" standalone="no"?>
<svg
   id="Layer_1"
   data-name="Layer 1"
   viewBox="0 0 101 101"
   version="1.1"
   sodipodi:docname="Tilda_Icons_47dlvr_map_blue.svg"
   inkscape:version="1.3 (0e150ed6c4, 2023-07-21)"
   xmlns:inkscape="http://www.inkscape.org/namespaces/inkscape"
   xmlns:sodipodi="http://sodipodi.sourceforge.net/DTD/sodipodi-0.dtd"
   xmlns="http://www.w3.org/2000/svg"
   xmlns:svg="http://www.w3.org/2000/svg">
  <defs
     id="defs2" />
  <sodipodi:namedview
     id="namedview2"
     pagecolor="#ffffff"
     bordercolor="#666666"
     borderopacity="1.0"
     inkscape:showpageshadow="2"
     inkscape:pageopacity="0.0"
     inkscape:pagecheckerboard="0"
     inkscape:deskcolor="#d1d1d1"
     inkscape:zoom="8.3069307"
     inkscape:cx="50.439809"
     inkscape:cy="50.5"
     inkscape:window-width="1920"
     inkscape:window-height="1017"
     inkscape:window-x="-8"
     inkscape:window-y="-8"
     inkscape:window-maximized="1"
     inkscape:current-layer="Layer_1" />
  <path
     d="M67.22,38.47a8,8,0,0,0,8-8,8,8,0,0,0-8-8h0a8,8,0,0,0-8,8,8,8,0,0,0,8,8Zm-5-8a5,5,0,0,1,5-5h0a5,5,0,1,1-5,5Z"
     id="path1"
     style="fill:#0065f2;fill-opacity:1" />
  <path
     d="M87.68,81.92,75.88,53.65l7.35-11.33a1.66,1.66,0,0,0,.19-.46,24,24,0,0,0,2.69-10.43A18.9,18.9,0,0,0,67.24,12.5h0A18.93,18.93,0,0,0,48.3,31.38a18,18,0,0,0,2.76,9.71.56.56,0,0,0,.09.17L56.32,50H26.7a1.51,1.51,0,0,0-1.38.91l-13.25,31A1.5,1.5,0,0,0,13.45,84H86.29a1.51,1.51,0,0,0,1.39-2.08Zm-34-42.25a15,15,0,0,1-2.42-8.29A15.93,15.93,0,0,1,67.21,15.5h0A15.89,15.89,0,0,1,83.11,31.43h0c0,2.88-.76,5.7-2.53,9.42l0,.1L66.91,62l-13-22A2.1,2.1,0,0,0,53.72,39.67ZM27.69,53H31c.54,3.09,3.34,4.33,5.45,5.25A6.39,6.39,0,0,1,39,59.8c.49.83.24,1.39-.94,3-1,1.44-2.47,3.42-1.51,6,1.46,3.88,8.81,4.9,16.86,5.68,1.44.13,2.68.25,3.46.39,6,1,8,4.39,8.66,6.15H15.72Zm41,28c-.51-2-2.66-7.65-11.3-9.11-.88-.15-2.17-.28-3.67-.42-4-.39-13.42-1.3-14.34-3.74-.35-.94.07-1.69,1.14-3.16s2.63-3.65,1.09-6.29c-.83-1.4-2.43-2.11-4-2.78-2-.85-3.1-1.47-3.54-2.5H57.5a1.62,1.62,0,0,0,.54-.1l7.52,12.69a1.51,1.51,0,0,0,1.26.74h0a1.49,1.49,0,0,0,1.26-.69l5.8-8.94L84,81Z"
     id="path2"
     style="fill:#0065f2;fill-opacity:1" />
</svg>
