<?xml version="1.0" encoding="UTF-8" standalone="no"?>
<svg
   id="Layer_1"
   data-name="Layer 1"
   viewBox="0 0 101 101"
   version="1.1"
   sodipodi:docname="Tilda_Icons_47dlvr_speed_blue.svg"
   inkscape:version="1.3 (0e150ed6c4, 2023-07-21)"
   xmlns:inkscape="http://www.inkscape.org/namespaces/inkscape"
   xmlns:sodipodi="http://sodipodi.sourceforge.net/DTD/sodipodi-0.dtd"
   xmlns="http://www.w3.org/2000/svg"
   xmlns:svg="http://www.w3.org/2000/svg">
  <defs
     id="defs7" />
  <sodipodi:namedview
     id="namedview7"
     pagecolor="#ffffff"
     bordercolor="#666666"
     borderopacity="1.0"
     inkscape:showpageshadow="2"
     inkscape:pageopacity="0.0"
     inkscape:pagecheckerboard="0"
     inkscape:deskcolor="#d1d1d1"
     inkscape:zoom="8.3069307"
     inkscape:cx="50.439809"
     inkscape:cy="50.5"
     inkscape:window-width="1920"
     inkscape:window-height="1017"
     inkscape:window-x="-8"
     inkscape:window-y="-8"
     inkscape:window-maximized="1"
     inkscape:current-layer="Layer_1" />
  <path
     d="M66,22.57s0-.05,0-.07V17h7.5a1.5,1.5,0,0,0,0-3h-18a1.5,1.5,0,0,0,0,3H63v5.5s0,0,0,.06a31.81,31.81,0,1,0,3,0ZM64.35,83.22A28.85,28.85,0,1,1,93.2,54.37,28.88,28.88,0,0,1,64.35,83.22Z"
     id="path1"
     style="fill:#0065f2;fill-opacity:1" />
  <path
     d="M57.14,73.94A20.93,20.93,0,0,1,43.5,54.37a1.5,1.5,0,0,0-3,0A23.94,23.94,0,0,0,56.1,76.75a1.36,1.36,0,0,0,.52.09,1.5,1.5,0,0,0,.52-2.9Z"
     id="path2"
     style="fill:#0065f2;fill-opacity:1" />
  <path
     d="M77.17,70.81a20.84,20.84,0,0,1-10,4.22,1.5,1.5,0,0,0,.19,3h.2A23.76,23.76,0,0,0,79,73.17a1.5,1.5,0,1,0-1.85-2.36Z"
     id="path3"
     style="fill:#0065f2;fill-opacity:1" />
  <path
     d="M69.33,54.37a4.94,4.94,0,0,0-.77-2.63L78.89,41.15a1.5,1.5,0,0,0-2.15-2.09L66.29,49.78a5,5,0,1,0,3,4.59Zm-5,2a2,2,0,1,1,2-2A2,2,0,0,1,64.35,56.36Z"
     id="path4"
     style="fill:#0065f2;fill-opacity:1" />
  <path
     d="M25,55.5A1.5,1.5,0,0,0,23.5,54H5.5a1.5,1.5,0,0,0,0,3h18A1.5,1.5,0,0,0,25,55.5Z"
     id="path5"
     style="fill:#0065f2;fill-opacity:1" />
  <path
     d="M26.5,68H8.5a1.5,1.5,0,0,0,0,3h18a1.5,1.5,0,0,0,0-3Z"
     id="path6"
     style="fill:#0065f2;fill-opacity:1" />
  <path
     d="M26.5,39H8.5a1.5,1.5,0,0,0,0,3h18a1.5,1.5,0,0,0,0-3Z"
     id="path7"
     style="fill:#0065f2;fill-opacity:1" />
</svg>
