<?xml version="1.0" encoding="UTF-8" standalone="no"?>
<!-- Generator: Adobe Illustrator 21.0.0, SVG Export Plug-In . SVG Version: 6.00 Build 0)  -->

<svg
   version="1.1"
   id="Layer_1"
   x="0px"
   y="0px"
   viewBox="0 0 100.353 100.353"
   style="enable-background:new 0 0 100.353 100.353;"
   xml:space="preserve"
   sodipodi:docname="Tilda_Icons_10cw_energy_blue.svg"
   inkscape:version="1.3 (0e150ed6c4, 2023-07-21)"
   xmlns:inkscape="http://www.inkscape.org/namespaces/inkscape"
   xmlns:sodipodi="http://sodipodi.sourceforge.net/DTD/sodipodi-0.dtd"
   xmlns="http://www.w3.org/2000/svg"
   xmlns:svg="http://www.w3.org/2000/svg"><defs
   id="defs4" /><sodipodi:namedview
   id="namedview4"
   pagecolor="#ffffff"
   bordercolor="#666666"
   borderopacity="1.0"
   inkscape:showpageshadow="2"
   inkscape:pageopacity="0.0"
   inkscape:pagecheckerboard="0"
   inkscape:deskcolor="#d1d1d1"
   inkscape:zoom="8.3604877"
   inkscape:cx="50.116693"
   inkscape:cy="50.176498"
   inkscape:window-width="1920"
   inkscape:window-height="1017"
   inkscape:window-x="-8"
   inkscape:window-y="-8"
   inkscape:window-maximized="1"
   inkscape:current-layer="Layer_1" />&#10;<g
   id="g4"
   style="fill:#0065f2;fill-opacity:1">&#10;	<path
   style="fill:#0065f2;fill-opacity:1"
   d="M75.214,9.427H24.787c-8.469,0-15.359,6.89-15.359,15.359v50.427c0,8.469,6.89,15.359,15.359,15.359   h50.427c8.469,0,15.359-6.891,15.359-15.359V24.786C90.573,16.317,83.683,9.427,75.214,9.427z M87.573,75.213   c0,6.815-5.544,12.359-12.359,12.359H24.787c-6.815,0-12.359-5.544-12.359-12.359V24.786c0-6.815,5.544-12.359,12.359-12.359   h50.427c6.815,0,12.359,5.544,12.359,12.359V75.213z"
   id="path1" />&#10;	<path
   style="fill:#0065f2;fill-opacity:1"
   d="M49.996,18.485c-17.377,0-31.515,14.137-31.515,31.515s14.137,31.516,31.515,31.516   c17.38,0,31.519-14.138,31.519-31.516C81.516,32.622,67.376,18.485,49.996,18.485z M51.496,78.475V65.049   c0-0.828-0.671-1.5-1.5-1.5s-1.5,0.672-1.5,1.5v13.426C33.467,77.692,21.481,65.22,21.481,49.999   c0-15.22,11.986-27.692,27.015-28.475V34.95c0,0.828,0.671,1.5,1.5,1.5s1.5-0.672,1.5-1.5V21.524   c15.031,0.783,27.019,13.255,27.019,28.475C78.516,65.22,66.527,77.692,51.496,78.475z"
   id="path2" />&#10;	<path
   style="fill:#0065f2;fill-opacity:1"
   d="M39.002,41.341c-4.774,0-8.659,3.886-8.659,8.662c0,4.772,3.884,8.655,8.659,8.655   s8.659-3.883,8.659-8.655C47.661,45.227,43.777,41.341,39.002,41.341z M39.002,55.658c-3.12,0-5.659-2.537-5.659-5.655   c0-3.122,2.539-5.662,5.659-5.662s5.659,2.54,5.659,5.662C44.661,53.121,42.122,55.658,39.002,55.658z"
   id="path3" />&#10;	<path
   style="fill:#0065f2;fill-opacity:1"
   d="M60.998,41.341c-4.774,0-8.659,3.886-8.659,8.662c0,4.772,3.884,8.655,8.659,8.655   s8.659-3.883,8.659-8.655C69.657,45.227,65.773,41.341,60.998,41.341z M60.998,55.658c-3.12,0-5.659-2.537-5.659-5.655   c0-3.122,2.539-5.662,5.659-5.662s5.659,2.54,5.659,5.662C66.657,53.121,64.119,55.658,60.998,55.658z"
   id="path4" />&#10;</g>&#10;</svg>
