<?xml version="1.0" encoding="UTF-8" standalone="no"?>
<svg id="Layer_1" data-name="Layer 1" viewBox="0 0 101 101" version="1.1" sodipodi:docname="Tilda_Icons_47dlvr_box-blue.svg" inkscape:version="1.3 (0e150ed6c4, 2023-07-21)" xmlns:inkscape="http://www.inkscape.org/namespaces/inkscape" xmlns:sodipodi="http://sodipodi.sourceforge.net/DTD/sodipodi-0.dtd" xmlns="http://www.w3.org/2000/svg" xmlns:svg="http://www.w3.org/2000/svg">
  <defs id="defs3"/>
  <sodipodi:namedview id="namedview3" pagecolor="#ffffff" bordercolor="#666666" borderopacity="1.0" inkscape:showpageshadow="2" inkscape:pageopacity="0.0" inkscape:pagecheckerboard="0" inkscape:deskcolor="#d1d1d1" inkscape:zoom="2.9369435" inkscape:cx="-0.51073505" inkscape:cy="30.473858" inkscape:window-width="1920" inkscape:window-height="1017" inkscape:window-x="-8" inkscape:window-y="-8" inkscape:window-maximized="1" inkscape:current-layer="Layer_1"/>
  <path d="M93.33,29.44,56.64,5A1.52,1.52,0,0,0,55,5L9.67,35.23A1.5,1.5,0,0,0,9,36.48V70.54a1.49,1.49,0,0,0,.65,1.23l36,25h0a1.56,1.56,0,0,0,.37.17l.08,0a1.34,1.34,0,0,0,.4.06,1.32,1.32,0,0,0,.39-.06.16.16,0,0,0,.09,0,1.33,1.33,0,0,0,.34-.16h0L93.33,66A1.49,1.49,0,0,0,94,64.74v-34A1.5,1.5,0,0,0,93.33,29.44ZM55.81,8.07,89.57,30.54l-11,7.31L45.35,15.05Zm-9,51a1.07,1.07,0,0,0-.25,0L13,36.64,30.6,24.88l33.25,22.8Zm-4.16-42.2,33.25,22.8-9.37,6.25L33.29,23.09ZM68,48.52l9-6-.32,14.3L68,62.52ZM12,39.6l33,22V92.63L12,69.75ZM48,92.69V61.85L65,50.52V65.3a1.5,1.5,0,0,0,1.5,1.5,1.44,1.44,0,0,0,.82-.25L79,58.89a1.48,1.48,0,0,0,.68-1.22l.39-17.19L91,33.19V63.94Z" id="path1" style="fill:#0065f2;fill-opacity:1"/>
  <path d="M40.43,68.23a1.5,1.5,0,0,0,.83-2.75L23.92,53.93a1.5,1.5,0,1,0-1.67,2.5L39.6,68A1.52,1.52,0,0,0,40.43,68.23Z" id="path2" style="fill:#0065f2;fill-opacity:1"/>
  <path d="M41.26,74.38l-9.93-6.61a1.5,1.5,0,1,0-1.66,2.49l9.93,6.62a1.5,1.5,0,0,0,2.08-.42A1.5,1.5,0,0,0,41.26,74.38Z" id="path3" style="fill:#0065f2;fill-opacity:1"/>
</svg>