<?xml version="1.0" encoding="UTF-8" standalone="no"?>
<svg
   id="Layer_1"
   data-name="Layer 1"
   viewBox="0 0 101 101"
   version="1.1"
   sodipodi:docname="Tilda_Icons_47dlvr_operator_blue.svg"
   inkscape:version="1.3 (0e150ed6c4, 2023-07-21)"
   xmlns:inkscape="http://www.inkscape.org/namespaces/inkscape"
   xmlns:sodipodi="http://sodipodi.sourceforge.net/DTD/sodipodi-0.dtd"
   xmlns="http://www.w3.org/2000/svg"
   xmlns:svg="http://www.w3.org/2000/svg">
  <defs
     id="defs3" />
  <sodipodi:namedview
     id="namedview3"
     pagecolor="#ffffff"
     bordercolor="#666666"
     borderopacity="1.0"
     inkscape:showpageshadow="2"
     inkscape:pageopacity="0.0"
     inkscape:pagecheckerboard="0"
     inkscape:deskcolor="#d1d1d1"
     inkscape:zoom="8.3069307"
     inkscape:cx="50.439809"
     inkscape:cy="50.5"
     inkscape:window-width="1920"
     inkscape:window-height="1017"
     inkscape:window-x="-8"
     inkscape:window-y="-8"
     inkscape:window-maximized="1"
     inkscape:current-layer="Layer_1" />
  <path
     d="M50.88,54.59A31.94,31.94,0,0,0,19,86.5a1.5,1.5,0,0,0,1.5,1.5h60.8a1.5,1.5,0,0,0,1.5-1.5A31.94,31.94,0,0,0,50.88,54.59ZM22,85a28.9,28.9,0,0,1,57.73,0Z"
     id="path1"
     style="fill:#0065f2;fill-opacity:1" />
  <path
     d="M50.35,14.67A18.44,18.44,0,1,0,68.78,33.1,18.45,18.45,0,0,0,50.35,14.67Zm0,33.87A15.44,15.44,0,1,1,65.78,33.1,15.45,15.45,0,0,1,50.35,48.54Z"
     id="path2"
     style="fill:#0065f2;fill-opacity:1" />
  <path
     d="M27.68,43a1.5,1.5,0,0,0,1.5-1.5V25a1.27,1.27,0,0,0,.13-.22,22.61,22.61,0,0,1,42-.16V41.52A22.45,22.45,0,0,1,66.43,49a1.5,1.5,0,0,0,0,2.12,1.48,1.48,0,0,0,1,.43,1.51,1.51,0,0,0,1.07-.44A25.57,25.57,0,0,0,74,43h.72a10,10,0,0,0,0-20h-.82a25.59,25.59,0,0,0-47,0h-1a10,10,0,0,0,0,20ZM74.32,26h.36a7,7,0,0,1,0,14h-.36Zm-55.5,7a7,7,0,0,1,7-7h.36V40h-.36A7,7,0,0,1,18.82,33Z"
     id="path3"
     style="fill:#0065f2;fill-opacity:1" />
</svg>
