<?xml version="1.0" encoding="UTF-8" standalone="no"?>
<svg
   id="Layer_1"
   data-name="Layer 1"
   viewBox="0 0 101 101"
   version="1.1"
   sodipodi:docname="Tilda_Icons_47dlvr_24hr_blue.svg"
   inkscape:version="1.3 (0e150ed6c4, 2023-07-21)"
   xmlns:inkscape="http://www.inkscape.org/namespaces/inkscape"
   xmlns:sodipodi="http://sodipodi.sourceforge.net/DTD/sodipodi-0.dtd"
   xmlns="http://www.w3.org/2000/svg"
   xmlns:svg="http://www.w3.org/2000/svg">
  <defs
     id="defs5" />
  <sodipodi:namedview
     id="namedview5"
     pagecolor="#ffffff"
     bordercolor="#666666"
     borderopacity="1.0"
     inkscape:showpageshadow="2"
     inkscape:pageopacity="0.0"
     inkscape:pagecheckerboard="0"
     inkscape:deskcolor="#d1d1d1"
     inkscape:zoom="8.3069307"
     inkscape:cx="50.439809"
     inkscape:cy="50.5"
     inkscape:window-width="1920"
     inkscape:window-height="1017"
     inkscape:window-x="-8"
     inkscape:window-y="-8"
     inkscape:window-maximized="1"
     inkscape:current-layer="Layer_1" />
  <path
     d="M67,50.5A1.5,1.5,0,0,0,65.5,49H52V28.5a1.5,1.5,0,0,0-3,0v22A1.5,1.5,0,0,0,50.5,52h15A1.5,1.5,0,0,0,67,50.5Z"
     id="path1"
     style="fill:#0065f2;fill-opacity:1" />
  <path
     d="M15.27,44.31a1.51,1.51,0,0,0,.65-.15L28.54,38a1.5,1.5,0,0,0-1.31-2.69L17.64,40a34.51,34.51,0,0,1,65.81.26h0A33.88,33.88,0,0,1,84.38,44a1.51,1.51,0,0,0,1.47,1.21l.29,0a1.52,1.52,0,0,0,1.19-1.76,35.81,35.81,0,0,0-1-4h0A37.32,37.32,0,0,0,50.5,13,37.7,37.7,0,0,0,14.91,38.66l-4.45-9.12a1.5,1.5,0,1,0-2.69,1.31l6.15,12.62A1.5,1.5,0,0,0,15.27,44.31Z"
     id="path2"
     style="fill:#0065f2;fill-opacity:1" />
  <path
     d="M93.39,71,87.23,58.34a1.5,1.5,0,0,0-2-.69L72.61,63.8a1.5,1.5,0,0,0,1.32,2.7L83,62.07A34.5,34.5,0,0,1,16.6,57a1.5,1.5,0,1,0-3,.56A37.51,37.51,0,0,0,86,62.64l4.7,9.63a1.49,1.49,0,0,0,1.35.85,1.39,1.39,0,0,0,.65-.16A1.5,1.5,0,0,0,93.39,71Z"
     id="path3"
     style="fill:#0065f2;fill-opacity:1" />
  <path
     d="M49,72.5v7a1.5,1.5,0,0,0,3,0v-7a1.5,1.5,0,0,0-3,0Z"
     id="path4"
     style="fill:#0065f2;fill-opacity:1" />
  <path
     d="M33.91,64.46l-4.95,5a1.51,1.51,0,0,0,2.13,2.13l4.95-5a1.51,1.51,0,0,0-2.13-2.13Z"
     id="path5"
     style="fill:#0065f2;fill-opacity:1" />
</svg>
