<?xml version="1.0" encoding="UTF-8" standalone="no"?>
<!-- Generator: Adobe Illustrator 21.1.0, SVG Export Plug-In . SVG Version: 6.00 Build 0)  -->

<svg
   version="1.1"
   id="Layer_1"
   x="0px"
   y="0px"
   viewBox="0 0 100.4 100.4"
   style="enable-background:new 0 0 100.4 100.4;"
   xml:space="preserve"
   sodipodi:docname="Tilda_Icons_1ed_hourglass_blue.svg"
   inkscape:version="1.3 (0e150ed6c4, 2023-07-21)"
   xmlns:inkscape="http://www.inkscape.org/namespaces/inkscape"
   xmlns:sodipodi="http://sodipodi.sourceforge.net/DTD/sodipodi-0.dtd"
   xmlns="http://www.w3.org/2000/svg"
   xmlns:svg="http://www.w3.org/2000/svg"><defs
   id="defs1" /><sodipodi:namedview
   id="namedview1"
   pagecolor="#ffffff"
   bordercolor="#666666"
   borderopacity="1.0"
   inkscape:showpageshadow="2"
   inkscape:pageopacity="0.0"
   inkscape:pagecheckerboard="0"
   inkscape:deskcolor="#d1d1d1"
   inkscape:zoom="8.3565736"
   inkscape:cx="50.140168"
   inkscape:cy="50.200001"
   inkscape:window-width="1920"
   inkscape:window-height="1017"
   inkscape:window-x="-8"
   inkscape:window-y="-8"
   inkscape:window-maximized="1"
   inkscape:current-layer="Layer_1" />&#10;<path
   d="M76.9,23.1l1.1-4.2h4.8c0.9,0,1.6-0.7,1.6-1.6v-7c0-0.9-0.7-1.6-1.6-1.6H17.5c-0.9,0-1.6,0.7-1.6,1.6v7  c0,0.9,0.7,1.6,1.6,1.6h4.8l1.1,4.2C26.2,34.7,34.5,43.9,45.7,48v3.8c-11.1,4.1-19.4,13.3-22.3,24.9L22,81.9h-4.5  c-0.9,0-1.6,0.7-1.6,1.6v7c0,0.9,0.7,1.6,1.6,1.6h65.3c0.9,0,1.6-0.7,1.6-1.6v-7c0-0.9-0.7-1.6-1.6-1.6h-4.5l-1.3-5.3  C74,65.1,65.7,55.9,54.6,51.8V48C65.7,43.9,74,34.7,76.9,23.1z M19.1,11.9h62v3.7h-62V11.9z M81.2,88.9h-62v-3.7h62V88.9z   M52.6,54.3C63.3,57.8,71.3,66.5,74,77.4l1.1,4.5h-50l1.1-4.5C29,66.5,37,57.8,47.6,54.3c0.6-0.2,1-0.8,1-1.4v-5.9  c0-0.6-0.4-1.2-1-1.4C37,41.9,29,33.3,26.3,22.4l-0.9-3.5h49.5L74,22.4c-2.7,10.9-10.7,19.5-21.4,23.1c-0.6,0.2-1,0.8-1,1.4v5.9  C51.6,53.5,52,54.1,52.6,54.3z"
   id="path1"
   style="fill:#0065f2;fill-opacity:1" />&#10;</svg>
