<?xml version="1.0" encoding="UTF-8" standalone="no"?>
<!-- Generator: Adobe Illustrator 21.1.0, SVG Export Plug-In . SVG Version: 6.00 Build 0)  -->

<svg
   version="1.1"
   id="Layer_1"
   x="0px"
   y="0px"
   viewBox="0 0 99.3 99.3"
   style="enable-background:new 0 0 99.3 99.3;"
   xml:space="preserve"
   sodipodi:docname="Tilda_Icons_1ed_speaker_blue.svg"
   inkscape:version="1.3 (0e150ed6c4, 2023-07-21)"
   xmlns:inkscape="http://www.inkscape.org/namespaces/inkscape"
   xmlns:sodipodi="http://sodipodi.sourceforge.net/DTD/sodipodi-0.dtd"
   xmlns="http://www.w3.org/2000/svg"
   xmlns:svg="http://www.w3.org/2000/svg"><defs
   id="defs2" /><sodipodi:namedview
   id="namedview2"
   pagecolor="#ffffff"
   bordercolor="#666666"
   borderopacity="1.0"
   inkscape:showpageshadow="2"
   inkscape:pageopacity="0.0"
   inkscape:pagecheckerboard="0"
   inkscape:deskcolor="#d1d1d1"
   inkscape:zoom="8.4491437"
   inkscape:cx="49.590824"
   inkscape:cy="49.650002"
   inkscape:window-width="1920"
   inkscape:window-height="1017"
   inkscape:window-x="-8"
   inkscape:window-y="-8"
   inkscape:window-maximized="1"
   inkscape:current-layer="Layer_1" />&#10;<g
   id="g2"
   style="fill:#0065f2;fill-opacity:1">&#10;	<path
   d="M42.9,41.3c9.3,0,16.9-7.6,16.9-16.9c0-9.3-7.6-16.8-16.9-16.8C33.6,7.6,26,15.1,26,24.4C26,33.7,33.6,41.3,42.9,41.3z    M42.9,10.6c7.6,0,13.9,6.2,13.9,13.8c0,7.6-6.2,13.9-13.9,13.9C35.2,38.3,29,32,29,24.4C29,16.8,35.2,10.6,42.9,10.6z"
   id="path1"
   style="fill:#0065f2;fill-opacity:1" />&#10;	<path
   d="M88.4,72h-4.5V49c0-0.4-0.1-0.8-0.4-1L79.8,44c1.2-2.3,0.6-5.2-1.4-6.9l-4.1-3.5c-1.2-1-2.7-1.5-4.2-1.3   c-1.5,0.1-2.9,0.8-3.9,2c-2,2.4-1.7,6.1,0.7,8.1l4.1,3.5c1.1,0.9,2.4,1.4,3.7,1.4c1.1,0,2.2-0.3,3.1-0.9l3.1,3.3V72h-8.5   c-0.4-15.7-13.3-28.3-29-28.3c-15.8,0-28.7,12.6-29,28.3h-3.7c-0.8,0-1.5,0.7-1.5,1.5v16.4c0,0.8,0.7,1.5,1.5,1.5h77.8   c0.8,0,1.5-0.7,1.5-1.5V73.5C89.9,72.7,89.2,72,88.4,72z M72.9,43.6l-4.1-3.5c-1.2-1-1.3-2.7-0.3-3.9c0.5-0.6,1.1-0.9,1.9-1   c0.1,0,0.2,0,0.2,0c0.6,0,1.3,0.2,1.8,0.7l4.1,3.5l0,0c1.2,1,1.3,2.7,0.3,3.9C75.8,44.4,74.1,44.6,72.9,43.6z M43.3,46.6   c14.1,0,25.7,11.3,26,25.3H17.3C17.7,57.9,29.2,46.6,43.3,46.6z M86.9,88.4H12.1V75h74.8V88.4z"
   id="path2"
   style="fill:#0065f2;fill-opacity:1" />&#10;</g>&#10;</svg>
