<?xml version="1.0" encoding="UTF-8" standalone="no"?>
<!-- Generator: Adobe Illustrator 21.1.0, SVG Export Plug-In . SVG Version: 6.00 Build 0)  -->

<svg
   version="1.1"
   id="Layer_1"
   x="0px"
   y="0px"
   viewBox="0 0 100.75 100.749"
   style="enable-background:new 0 0 100.75 100.749;"
   xml:space="preserve"
   sodipodi:docname="Tilda_Icons_25as_engine_blue.svg"
   inkscape:version="1.3 (0e150ed6c4, 2023-07-21)"
   xmlns:inkscape="http://www.inkscape.org/namespaces/inkscape"
   xmlns:sodipodi="http://sodipodi.sourceforge.net/DTD/sodipodi-0.dtd"
   xmlns="http://www.w3.org/2000/svg"
   xmlns:svg="http://www.w3.org/2000/svg"><defs
   id="defs1" /><sodipodi:namedview
   id="namedview1"
   pagecolor="#ffffff"
   bordercolor="#666666"
   borderopacity="1.0"
   inkscape:showpageshadow="2"
   inkscape:pageopacity="0.0"
   inkscape:pagecheckerboard="0"
   inkscape:deskcolor="#d1d1d1"
   inkscape:zoom="8.327626"
   inkscape:cx="50.434541"
   inkscape:cy="50.3745"
   inkscape:window-width="1920"
   inkscape:window-height="1017"
   inkscape:window-x="-8"
   inkscape:window-y="-8"
   inkscape:window-maximized="1"
   inkscape:current-layer="Layer_1" />&#10;<path
   d="M95.665,40.723H88.59c-0.828,0-1.5,0.671-1.5,1.5v10.522h-6.341l-9.445-11.451c-0.285-0.345-0.709-0.545-1.157-0.545H55.045  v-7.887c0-0.829-0.672-1.5-1.5-1.5H39.851v-5.363h13.79c0.828,0,1.5-0.671,1.5-1.5s-0.672-1.5-1.5-1.5h-30.58  c-0.829,0-1.5,0.671-1.5,1.5s0.671,1.5,1.5,1.5h13.79v5.363h-13.79c-0.829,0-1.5,0.671-1.5,1.5v7.887h-7.887  c-0.829,0-1.5,0.671-1.5,1.5v10.997H5.805v-8.957c0-0.829-0.671-1.5-1.5-1.5s-1.5,0.671-1.5,1.5v20.914c0,0.828,0.671,1.5,1.5,1.5  s1.5-0.672,1.5-1.5v-8.957h6.369v12.57c0,0.828,0.671,1.5,1.5,1.5h8.821l5.248,7.078C28.026,77.775,28.473,78,28.948,78h51.094  c0.828,0,1.5-0.672,1.5-1.5V62.63h5.548v10.363c0,0.828,0.672,1.5,1.5,1.5h7.075c0.828,0,1.5-0.672,1.5-1.5v-30.77  C97.165,41.395,96.493,40.723,95.665,40.723z M80.042,59.63c-0.828,0-1.5,0.672-1.5,1.5V75H29.703l-5.248-7.078  c-0.283-0.382-0.73-0.606-1.205-0.606h-8.076V43.749h7.887c0.829,0,1.5-0.671,1.5-1.5v-7.887h27.484v7.887  c0,0.829,0.672,1.5,1.5,1.5h15.895l9.445,11.451c0.285,0.346,0.709,0.546,1.157,0.546h7.048v3.885H80.042z M94.165,71.493H90.09  v-27.77h4.075V71.493z"
   id="path1"
   style="fill:#0065f2;fill-opacity:1" />&#10;</svg>
