<?xml version="1.0" encoding="UTF-8" standalone="no"?>
<!-- Generator: Adobe Illustrator 21.1.0, SVG Export Plug-In . SVG Version: 6.00 Build 0)  -->

<svg
   version="1.1"
   id="Layer_1"
   x="0px"
   y="0px"
   viewBox="0 0 100.354 100.352"
   style="enable-background:new 0 0 100.354 100.352;"
   xml:space="preserve"
   sodipodi:docname="Tilda_Icons_2web_bubble_blue.svg"
   inkscape:version="1.3 (0e150ed6c4, 2023-07-21)"
   xmlns:inkscape="http://www.inkscape.org/namespaces/inkscape"
   xmlns:sodipodi="http://sodipodi.sourceforge.net/DTD/sodipodi-0.dtd"
   xmlns="http://www.w3.org/2000/svg"
   xmlns:svg="http://www.w3.org/2000/svg"><defs
   id="defs3" /><sodipodi:namedview
   id="namedview3"
   pagecolor="#ffffff"
   bordercolor="#666666"
   borderopacity="1.0"
   inkscape:showpageshadow="2"
   inkscape:pageopacity="0.0"
   inkscape:pagecheckerboard="0"
   inkscape:deskcolor="#d1d1d1"
   inkscape:zoom="8.360571"
   inkscape:cx="50.235803"
   inkscape:cy="50.175999"
   inkscape:window-width="1920"
   inkscape:window-height="1017"
   inkscape:window-x="-8"
   inkscape:window-y="-8"
   inkscape:window-maximized="1"
   inkscape:current-layer="Layer_1" />&#10;<g
   id="g3"
   style="fill:#0065f2;fill-opacity:1">&#10;	<path
   d="M91.386,8.266H36.143c-0.829,0-1.5,0.671-1.5,1.5v22.636H9.808c-0.829,0-1.5,0.671-1.5,1.5v43.927   c0,0.828,0.671,1.5,1.5,1.5h13.128l12.336,13.046c0.289,0.306,0.686,0.47,1.09,0.47c0.186,0,0.374-0.034,0.554-0.106   c0.571-0.227,0.945-0.778,0.946-1.393l0.006-12.017h29.867c0.828,0,1.5-0.672,1.5-1.5V55.193h22.15c0.828,0,1.5-0.672,1.5-1.5   V9.766C92.886,8.937,92.214,8.266,91.386,8.266z M66.235,76.329H36.369c-0.828,0-1.5,0.671-1.5,1.499l-0.005,9.749L24.672,76.799   c-0.283-0.3-0.677-0.47-1.09-0.47H11.308V35.402h23.335v18.291c0,0.828,0.671,1.5,1.5,1.5h11.159v11.052   c0,0.604,0.362,1.149,0.919,1.383c0.188,0.079,0.385,0.117,0.58,0.117c0.386,0,0.765-0.148,1.051-0.43l12.35-12.122h4.033V76.329z    M89.886,52.193H61.589c-0.393,0-0.771,0.154-1.051,0.43L50.302,62.67v-8.978c0-0.828-0.671-1.5-1.5-1.5H37.643V11.266h52.243   V52.193z"
   id="path1"
   style="fill:#0065f2;fill-opacity:1" />&#10;	<path
   d="M50.009,26.131c0.006,0,0.013,0,0.019,0c2.558-0.01,4.63-2.099,4.62-4.656c-0.01-2.551-2.089-4.62-4.638-4.62   c-0.006,0-0.013,0-0.019,0c-2.558,0.01-4.63,2.099-4.62,4.656C45.382,24.063,47.46,26.131,50.009,26.131z M50.003,19.855   c0.002,0,0.004,0,0.007,0c0.9,0,1.634,0.73,1.638,1.631c0.002,0.438-0.167,0.85-0.476,1.16c-0.308,0.311-0.719,0.482-1.156,0.484   c-0.441,0.013-0.85-0.167-1.16-0.475c-0.311-0.308-0.482-0.719-0.484-1.156C48.368,20.596,49.1,19.859,50.003,19.855z"
   id="path2"
   style="fill:#0065f2;fill-opacity:1" />&#10;	<path
   d="M64.841,26.131c0.006,0,0.013,0,0.019,0c2.558-0.01,4.63-2.099,4.62-4.656c-0.01-2.551-2.089-4.62-4.638-4.62   c-0.006,0-0.013,0-0.019,0c-2.558,0.01-4.63,2.099-4.62,4.656c0.005,1.239,0.492,2.402,1.372,3.274   C62.45,25.654,63.609,26.131,64.841,26.131z M64.835,19.855c0.002,0,0.005,0,0.007,0c0.9,0,1.634,0.73,1.638,1.631   c0.002,0.438-0.167,0.85-0.476,1.16c-0.308,0.311-0.719,0.482-1.156,0.484c-0.002,0-0.005,0-0.007,0   c-0.435,0-0.844-0.168-1.153-0.475c-0.311-0.309-0.482-0.719-0.484-1.157C63.199,20.596,63.932,19.859,64.835,19.855z"
   id="path3"
   style="fill:#0065f2;fill-opacity:1" />&#10;</g>&#10;</svg>
