<?xml version="1.0" encoding="UTF-8" standalone="no"?>
<svg
   id="Layer_1"
   data-name="Layer 1"
   viewBox="0 0 101 101"
   version="1.1"
   sodipodi:docname="Tilda_Icons_47dlvr_box_save_blue.svg"
   inkscape:version="1.3 (0e150ed6c4, 2023-07-21)"
   xmlns:inkscape="http://www.inkscape.org/namespaces/inkscape"
   xmlns:sodipodi="http://sodipodi.sourceforge.net/DTD/sodipodi-0.dtd"
   xmlns="http://www.w3.org/2000/svg"
   xmlns:svg="http://www.w3.org/2000/svg">
  <defs
     id="defs1" />
  <sodipodi:namedview
     id="namedview1"
     pagecolor="#ffffff"
     bordercolor="#666666"
     borderopacity="1.0"
     inkscape:showpageshadow="2"
     inkscape:pageopacity="0.0"
     inkscape:pagecheckerboard="0"
     inkscape:deskcolor="#d1d1d1"
     inkscape:zoom="8.3069307"
     inkscape:cx="50.439809"
     inkscape:cy="50.5"
     inkscape:window-width="1920"
     inkscape:window-height="1017"
     inkscape:window-x="-8"
     inkscape:window-y="-8"
     inkscape:window-maximized="1"
     inkscape:current-layer="Layer_1" />
  <path
     d="M91.05,55.07l-9-4,0-22.25a1.5,1.5,0,0,0-.17-1.07h0l0-.07-.08-.09a1.52,1.52,0,0,0-.38-.38L62,14.37l-.13-.09L44.73,2.84a1.53,1.53,0,0,0-1.67,0L6.86,27a1.51,1.51,0,0,0-.65.55A1.47,1.47,0,0,0,6,28.7V62.44a1.48,1.48,0,0,0,.67,1.25L43.39,88.14a1.55,1.55,0,0,0,.83.25,1.61,1.61,0,0,0,.84-.25L61,77.52a13.17,13.17,0,0,0,7.34,8.79l7,3.16a1.42,1.42,0,0,0,1.23,0l7-3.16a13.19,13.19,0,0,0,7.7-11L92,56.5A1.52,1.52,0,0,0,91.05,55.07Zm-30.21,0a1.52,1.52,0,0,0-.9,1.43l.63,17.69-15.07,10V53.72L79,31.38l0,18.43-2.48-1.09a1.5,1.5,0,0,0-1.21,0Zm17-26.53L44.18,51,27.62,40l33.5-22.59Zm-34-22.65,14.53,9.69L24.92,38.17l-14.74-9.8ZM9,31.18l33.5,22.3V83.94L9,61.64ZM88.29,75.11a10.14,10.14,0,0,1-6,8.46L76,86.46l-6.4-2.89a10.13,10.13,0,0,1-5.95-8.39L63,57.41l13-5.68,13,5.68Z"
     id="path1"
     style="fill:#0065f2;fill-opacity:1" />
</svg>
