<?xml version="1.0" encoding="UTF-8" standalone="no"?>
<svg
   id="Layer_1"
   data-name="Layer 1"
   viewBox="0 0 101 101"
   version="1.1"
   sodipodi:docname="Tilda_Icons_47dlvr_safety_blue.svg"
   inkscape:version="1.3 (0e150ed6c4, 2023-07-21)"
   xmlns:inkscape="http://www.inkscape.org/namespaces/inkscape"
   xmlns:sodipodi="http://sodipodi.sourceforge.net/DTD/sodipodi-0.dtd"
   xmlns="http://www.w3.org/2000/svg"
   xmlns:svg="http://www.w3.org/2000/svg">
  <defs
     id="defs3" />
  <sodipodi:namedview
     id="namedview3"
     pagecolor="#ffffff"
     bordercolor="#666666"
     borderopacity="1.0"
     inkscape:showpageshadow="2"
     inkscape:pageopacity="0.0"
     inkscape:pagecheckerboard="0"
     inkscape:deskcolor="#d1d1d1"
     inkscape:zoom="8.3069307"
     inkscape:cx="50.439809"
     inkscape:cy="50.5"
     inkscape:window-width="1920"
     inkscape:window-height="1017"
     inkscape:window-x="-8"
     inkscape:window-y="-8"
     inkscape:window-maximized="1"
     inkscape:current-layer="Layer_1" />
  <path
     d="M85.3,20.33l-34.2-15a1.48,1.48,0,0,0-1.2,0l-34.2,15a1.48,1.48,0,0,0-.9,1.42l1.56,44.37a29,29,0,0,0,17,24.14l16.54,7.47a1.44,1.44,0,0,0,1.24,0l16.54-7.47a29,29,0,0,0,17-24.21l1.56-44.3A1.48,1.48,0,0,0,85.3,20.33ZM81.65,65.88A26,26,0,0,1,66.43,87.53L50.5,94.72,34.57,87.53A26,26,0,0,1,19.36,66L17.83,22.67,50.5,8.36,83.17,22.67Z"
     id="path1"
     style="fill:#0065f2;fill-opacity:1" />
  <path
     d="M40,32.48V38H29.5A1.5,1.5,0,0,0,28,39.5v29A1.5,1.5,0,0,0,29.5,70h42A1.5,1.5,0,0,0,73,68.5v-29A1.5,1.5,0,0,0,71.5,38H61V32.13a10.52,10.52,0,0,0-3.3-7.64,10.4,10.4,0,0,0-7.85-2.84A10.7,10.7,0,0,0,40,32.48ZM70,67H31V41H70ZM55.64,26.67A7.43,7.43,0,0,1,58,32.13V38H43V32.48a7.7,7.7,0,0,1,7-7.84A7.47,7.47,0,0,1,55.64,26.67Z"
     id="path2"
     style="fill:#0065f2;fill-opacity:1" />
  <path
     d="M50.5,46.05A5,5,0,0,0,49,55.79V60.5a1.5,1.5,0,0,0,3,0V55.79a5,5,0,0,0-1.5-9.74Zm0,7a2,2,0,1,1,2-2A2,2,0,0,1,50.5,53.05Z"
     id="path3"
     style="fill:#0065f2;fill-opacity:1" />
</svg>
